<?xml version="1.0" encoding="utf-8" standalone="no"?>
<!DOCTYPE svg PUBLIC "-//W3C//DTD SVG 1.1//EN"
  "http://www.w3.org/Graphics/SVG/1.1/DTD/svg11.dtd">
<svg xmlns:xlink="http://www.w3.org/1999/xlink" width="432pt" height="288pt" viewBox="0 0 432 288" xmlns="http://www.w3.org/2000/svg" version="1.1">
 <metadata>
  <rdf:RDF xmlns:dc="http://purl.org/dc/elements/1.1/" xmlns:cc="http://creativecommons.org/ns#" xmlns:rdf="http://www.w3.org/1999/02/22-rdf-syntax-ns#">
   <cc:Work>
    <dc:type rdf:resource="http://purl.org/dc/dcmitype/StillImage"/>
    <dc:date>2023-11-06T07:54:12.258745</dc:date>
    <dc:format>image/svg+xml</dc:format>
    <dc:creator>
     <cc:Agent>
      <dc:title>Matplotlib v3.8.0, https://matplotlib.org/</dc:title>
     </cc:Agent>
    </dc:creator>
   </cc:Work>
  </rdf:RDF>
 </metadata>
 <defs>
  <style type="text/css">*{stroke-linejoin: round; stroke-linecap: butt}</style>
 </defs>
 <g id="figure_1">
  <g id="patch_1">
   <path d="M 0 288 
L 432 288 
L 432 0 
L 0 0 
L 0 288 
z
" style="fill: none"/>
  </g>
  <g id="axes_1">
   <g id="patch_2">
    <path d="M 54 256.32 
L 388.8 256.32 
L 388.8 34.56 
L 54 34.56 
L 54 256.32 
z
" style="fill: none; opacity: 0"/>
   </g>
   <g id="patch_3">
    <path d="M 69.792453 34.56 
L 120.328302 34.56 
L 120.328302 97.92 
L 69.792453 97.92 
z
" clip-path="url(#p863a9af06f)" style="fill: #377eb8"/>
   </g>
   <g id="patch_4">
    <path d="M 132.962264 34.56 
L 183.498113 34.56 
L 183.498113 97.92 
L 132.962264 97.92 
z
" clip-path="url(#p863a9af06f)" style="fill: #377eb8"/>
   </g>
   <g id="patch_5">
    <path d="M 196.132075 34.56 
L 246.667925 34.56 
L 246.667925 97.92 
L 196.132075 97.92 
z
" clip-path="url(#p863a9af06f)" style="fill: #377eb8"/>
   </g>
   <g id="patch_6">
    <path d="M 259.301887 34.56 
L 309.837736 34.56 
L 309.837736 245.76 
L 259.301887 245.76 
z
" clip-path="url(#p863a9af06f)" style="fill: #377eb8"/>
   </g>
   <g id="patch_7">
    <path d="M 322.471698 34.56 
L 373.007547 34.56 
L 373.007547 245.76 
L 322.471698 245.76 
z
" clip-path="url(#p863a9af06f)" style="fill: #377eb8"/>
   </g>
   <g id="patch_8">
    <path d="M 69.792453 97.92 
L 120.328302 97.92 
L 120.328302 182.4 
L 69.792453 182.4 
z
" clip-path="url(#p863a9af06f)" style="fill: #e41a1c"/>
   </g>
   <g id="patch_9">
    <path d="M 132.962264 97.92 
L 183.498113 97.92 
L 183.498113 182.4 
L 132.962264 182.4 
z
" clip-path="url(#p863a9af06f)" style="fill: #e41a1c"/>
   </g>
   <g id="patch_10">
    <path d="M 196.132075 97.92 
L 246.667925 97.92 
L 246.667925 182.4 
L 196.132075 182.4 
z
" clip-path="url(#p863a9af06f)" style="fill: #e41a1c"/>
   </g>
   <g id="patch_11">
    <path d="M 259.301887 34.56 
L 309.837736 34.56 
L 309.837736 34.56 
L 259.301887 34.56 
z
" clip-path="url(#p863a9af06f)" style="fill: #e41a1c"/>
   </g>
   <g id="patch_12">
    <path d="M 322.471698 34.56 
L 373.007547 34.56 
L 373.007547 34.56 
L 322.471698 34.56 
z
" clip-path="url(#p863a9af06f)" style="fill: #e41a1c"/>
   </g>
   <g id="patch_13">
    <path d="M 69.792453 182.4 
L 120.328302 182.4 
L 120.328302 245.76 
L 69.792453 245.76 
z
" clip-path="url(#p863a9af06f)" style="fill: #377eb8"/>
   </g>
   <g id="patch_14">
    <path d="M 132.962264 182.4 
L 183.498113 182.4 
L 183.498113 245.76 
L 132.962264 245.76 
z
" clip-path="url(#p863a9af06f)" style="fill: #377eb8"/>
   </g>
   <g id="patch_15">
    <path d="M 196.132075 182.4 
L 246.667925 182.4 
L 246.667925 245.76 
L 196.132075 245.76 
z
" clip-path="url(#p863a9af06f)" style="fill: #377eb8"/>
   </g>
   <g id="patch_16">
    <path d="M 259.301887 34.56 
L 309.837736 34.56 
L 309.837736 34.56 
L 259.301887 34.56 
z
" clip-path="url(#p863a9af06f)" style="fill: #377eb8"/>
   </g>
   <g id="patch_17">
    <path d="M 322.471698 34.56 
L 373.007547 34.56 
L 373.007547 34.56 
L 322.471698 34.56 
z
" clip-path="url(#p863a9af06f)" style="fill: #377eb8"/>
   </g>
   <g id="matplotlib.axis_1">
    <g id="xtick_1">
     <g id="line2d_1">
      <defs>
       <path id="m70b6828b67" d="M 0 0 
L 0 3.5 
" style="stroke: #000000; stroke-width: 0.8"/>
      </defs>
      <g>
       <use xlink:href="#m70b6828b67" x="95.060377" y="256.32" style="stroke: #000000; stroke-width: 0.8"/>
      </g>
     </g>
     <g id="text_1">
      <!-- 0 or 5 -->
      <g transform="translate(77.473815 272.438125) scale(0.12 -0.12)">
       <defs>
        <path id="DejaVuSans-30" d="M 2034 4250 
Q 1547 4250 1301 3770 
Q 1056 3291 1056 2328 
Q 1056 1369 1301 889 
Q 1547 409 2034 409 
Q 2525 409 2770 889 
Q 3016 1369 3016 2328 
Q 3016 3291 2770 3770 
Q 2525 4250 2034 4250 
z
M 2034 4750 
Q 2819 4750 3233 4129 
Q 3647 3509 3647 2328 
Q 3647 1150 3233 529 
Q 2819 -91 2034 -91 
Q 1250 -91 836 529 
Q 422 1150 422 2328 
Q 422 3509 836 4129 
Q 1250 4750 2034 4750 
z
" transform="scale(0.015625)"/>
        <path id="DejaVuSans-20" transform="scale(0.015625)"/>
        <path id="DejaVuSans-6f" d="M 1959 3097 
Q 1497 3097 1228 2736 
Q 959 2375 959 1747 
Q 959 1119 1226 758 
Q 1494 397 1959 397 
Q 2419 397 2687 759 
Q 2956 1122 2956 1747 
Q 2956 2369 2687 2733 
Q 2419 3097 1959 3097 
z
M 1959 3584 
Q 2709 3584 3137 3096 
Q 3566 2609 3566 1747 
Q 3566 888 3137 398 
Q 2709 -91 1959 -91 
Q 1206 -91 779 398 
Q 353 888 353 1747 
Q 353 2609 779 3096 
Q 1206 3584 1959 3584 
z
" transform="scale(0.015625)"/>
        <path id="DejaVuSans-72" d="M 2631 2963 
Q 2534 3019 2420 3045 
Q 2306 3072 2169 3072 
Q 1681 3072 1420 2755 
Q 1159 2438 1159 1844 
L 1159 0 
L 581 0 
L 581 3500 
L 1159 3500 
L 1159 2956 
Q 1341 3275 1631 3429 
Q 1922 3584 2338 3584 
Q 2397 3584 2469 3576 
Q 2541 3569 2628 3553 
L 2631 2963 
z
" transform="scale(0.015625)"/>
        <path id="DejaVuSans-35" d="M 691 4666 
L 3169 4666 
L 3169 4134 
L 1269 4134 
L 1269 2991 
Q 1406 3038 1543 3061 
Q 1681 3084 1819 3084 
Q 2600 3084 3056 2656 
Q 3513 2228 3513 1497 
Q 3513 744 3044 326 
Q 2575 -91 1722 -91 
Q 1428 -91 1123 -41 
Q 819 9 494 109 
L 494 744 
Q 775 591 1075 516 
Q 1375 441 1709 441 
Q 2250 441 2565 725 
Q 2881 1009 2881 1497 
Q 2881 1984 2565 2268 
Q 2250 2553 1709 2553 
Q 1456 2553 1204 2497 
Q 953 2441 691 2322 
L 691 4666 
z
" transform="scale(0.015625)"/>
       </defs>
       <use xlink:href="#DejaVuSans-30"/>
       <use xlink:href="#DejaVuSans-20" x="63.623047"/>
       <use xlink:href="#DejaVuSans-6f" x="95.410156"/>
       <use xlink:href="#DejaVuSans-72" x="156.591797"/>
       <use xlink:href="#DejaVuSans-20" x="197.705078"/>
       <use xlink:href="#DejaVuSans-35" x="229.492188"/>
      </g>
     </g>
    </g>
    <g id="xtick_2">
     <g id="line2d_2">
      <g>
       <use xlink:href="#m70b6828b67" x="158.230189" y="256.32" style="stroke: #000000; stroke-width: 0.8"/>
      </g>
     </g>
     <g id="text_2">
      <!-- 1 or 6 -->
      <g transform="translate(140.643626 272.438125) scale(0.12 -0.12)">
       <defs>
        <path id="DejaVuSans-31" d="M 794 531 
L 1825 531 
L 1825 4091 
L 703 3866 
L 703 4441 
L 1819 4666 
L 2450 4666 
L 2450 531 
L 3481 531 
L 3481 0 
L 794 0 
L 794 531 
z
" transform="scale(0.015625)"/>
        <path id="DejaVuSans-36" d="M 2113 2584 
Q 1688 2584 1439 2293 
Q 1191 2003 1191 1497 
Q 1191 994 1439 701 
Q 1688 409 2113 409 
Q 2538 409 2786 701 
Q 3034 994 3034 1497 
Q 3034 2003 2786 2293 
Q 2538 2584 2113 2584 
z
M 3366 4563 
L 3366 3988 
Q 3128 4100 2886 4159 
Q 2644 4219 2406 4219 
Q 1781 4219 1451 3797 
Q 1122 3375 1075 2522 
Q 1259 2794 1537 2939 
Q 1816 3084 2150 3084 
Q 2853 3084 3261 2657 
Q 3669 2231 3669 1497 
Q 3669 778 3244 343 
Q 2819 -91 2113 -91 
Q 1303 -91 875 529 
Q 447 1150 447 2328 
Q 447 3434 972 4092 
Q 1497 4750 2381 4750 
Q 2619 4750 2861 4703 
Q 3103 4656 3366 4563 
z
" transform="scale(0.015625)"/>
       </defs>
       <use xlink:href="#DejaVuSans-31"/>
       <use xlink:href="#DejaVuSans-20" x="63.623047"/>
       <use xlink:href="#DejaVuSans-6f" x="95.410156"/>
       <use xlink:href="#DejaVuSans-72" x="156.591797"/>
       <use xlink:href="#DejaVuSans-20" x="197.705078"/>
       <use xlink:href="#DejaVuSans-36" x="229.492188"/>
      </g>
     </g>
    </g>
    <g id="xtick_3">
     <g id="line2d_3">
      <g>
       <use xlink:href="#m70b6828b67" x="221.4" y="256.32" style="stroke: #000000; stroke-width: 0.8"/>
      </g>
     </g>
     <g id="text_3">
      <!-- 2 or 7 -->
      <g transform="translate(203.813437 272.438125) scale(0.12 -0.12)">
       <defs>
        <path id="DejaVuSans-32" d="M 1228 531 
L 3431 531 
L 3431 0 
L 469 0 
L 469 531 
Q 828 903 1448 1529 
Q 2069 2156 2228 2338 
Q 2531 2678 2651 2914 
Q 2772 3150 2772 3378 
Q 2772 3750 2511 3984 
Q 2250 4219 1831 4219 
Q 1534 4219 1204 4116 
Q 875 4013 500 3803 
L 500 4441 
Q 881 4594 1212 4672 
Q 1544 4750 1819 4750 
Q 2544 4750 2975 4387 
Q 3406 4025 3406 3419 
Q 3406 3131 3298 2873 
Q 3191 2616 2906 2266 
Q 2828 2175 2409 1742 
Q 1991 1309 1228 531 
z
" transform="scale(0.015625)"/>
        <path id="DejaVuSans-37" d="M 525 4666 
L 3525 4666 
L 3525 4397 
L 1831 0 
L 1172 0 
L 2766 4134 
L 525 4134 
L 525 4666 
z
" transform="scale(0.015625)"/>
       </defs>
       <use xlink:href="#DejaVuSans-32"/>
       <use xlink:href="#DejaVuSans-20" x="63.623047"/>
       <use xlink:href="#DejaVuSans-6f" x="95.410156"/>
       <use xlink:href="#DejaVuSans-72" x="156.591797"/>
       <use xlink:href="#DejaVuSans-20" x="197.705078"/>
       <use xlink:href="#DejaVuSans-37" x="229.492188"/>
      </g>
     </g>
    </g>
    <g id="xtick_4">
     <g id="line2d_4">
      <g>
       <use xlink:href="#m70b6828b67" x="284.569811" y="256.32" style="stroke: #000000; stroke-width: 0.8"/>
      </g>
     </g>
     <g id="text_4">
      <!-- 3 or 8 -->
      <g transform="translate(266.983249 272.438125) scale(0.12 -0.12)">
       <defs>
        <path id="DejaVuSans-33" d="M 2597 2516 
Q 3050 2419 3304 2112 
Q 3559 1806 3559 1356 
Q 3559 666 3084 287 
Q 2609 -91 1734 -91 
Q 1441 -91 1130 -33 
Q 819 25 488 141 
L 488 750 
Q 750 597 1062 519 
Q 1375 441 1716 441 
Q 2309 441 2620 675 
Q 2931 909 2931 1356 
Q 2931 1769 2642 2001 
Q 2353 2234 1838 2234 
L 1294 2234 
L 1294 2753 
L 1863 2753 
Q 2328 2753 2575 2939 
Q 2822 3125 2822 3475 
Q 2822 3834 2567 4026 
Q 2313 4219 1838 4219 
Q 1578 4219 1281 4162 
Q 984 4106 628 3988 
L 628 4550 
Q 988 4650 1302 4700 
Q 1616 4750 1894 4750 
Q 2613 4750 3031 4423 
Q 3450 4097 3450 3541 
Q 3450 3153 3228 2886 
Q 3006 2619 2597 2516 
z
" transform="scale(0.015625)"/>
        <path id="DejaVuSans-38" d="M 2034 2216 
Q 1584 2216 1326 1975 
Q 1069 1734 1069 1313 
Q 1069 891 1326 650 
Q 1584 409 2034 409 
Q 2484 409 2743 651 
Q 3003 894 3003 1313 
Q 3003 1734 2745 1975 
Q 2488 2216 2034 2216 
z
M 1403 2484 
Q 997 2584 770 2862 
Q 544 3141 544 3541 
Q 544 4100 942 4425 
Q 1341 4750 2034 4750 
Q 2731 4750 3128 4425 
Q 3525 4100 3525 3541 
Q 3525 3141 3298 2862 
Q 3072 2584 2669 2484 
Q 3125 2378 3379 2068 
Q 3634 1759 3634 1313 
Q 3634 634 3220 271 
Q 2806 -91 2034 -91 
Q 1263 -91 848 271 
Q 434 634 434 1313 
Q 434 1759 690 2068 
Q 947 2378 1403 2484 
z
M 1172 3481 
Q 1172 3119 1398 2916 
Q 1625 2713 2034 2713 
Q 2441 2713 2670 2916 
Q 2900 3119 2900 3481 
Q 2900 3844 2670 4047 
Q 2441 4250 2034 4250 
Q 1625 4250 1398 4047 
Q 1172 3844 1172 3481 
z
" transform="scale(0.015625)"/>
       </defs>
       <use xlink:href="#DejaVuSans-33"/>
       <use xlink:href="#DejaVuSans-20" x="63.623047"/>
       <use xlink:href="#DejaVuSans-6f" x="95.410156"/>
       <use xlink:href="#DejaVuSans-72" x="156.591797"/>
       <use xlink:href="#DejaVuSans-20" x="197.705078"/>
       <use xlink:href="#DejaVuSans-38" x="229.492188"/>
      </g>
     </g>
    </g>
    <g id="xtick_5">
     <g id="line2d_5">
      <g>
       <use xlink:href="#m70b6828b67" x="347.739623" y="256.32" style="stroke: #000000; stroke-width: 0.8"/>
      </g>
     </g>
     <g id="text_5">
      <!-- 4 or 9 -->
      <g transform="translate(330.15306 272.438125) scale(0.12 -0.12)">
       <defs>
        <path id="DejaVuSans-34" d="M 2419 4116 
L 825 1625 
L 2419 1625 
L 2419 4116 
z
M 2253 4666 
L 3047 4666 
L 3047 1625 
L 3713 1625 
L 3713 1100 
L 3047 1100 
L 3047 0 
L 2419 0 
L 2419 1100 
L 313 1100 
L 313 1709 
L 2253 4666 
z
" transform="scale(0.015625)"/>
        <path id="DejaVuSans-39" d="M 703 97 
L 703 672 
Q 941 559 1184 500 
Q 1428 441 1663 441 
Q 2288 441 2617 861 
Q 2947 1281 2994 2138 
Q 2813 1869 2534 1725 
Q 2256 1581 1919 1581 
Q 1219 1581 811 2004 
Q 403 2428 403 3163 
Q 403 3881 828 4315 
Q 1253 4750 1959 4750 
Q 2769 4750 3195 4129 
Q 3622 3509 3622 2328 
Q 3622 1225 3098 567 
Q 2575 -91 1691 -91 
Q 1453 -91 1209 -44 
Q 966 3 703 97 
z
M 1959 2075 
Q 2384 2075 2632 2365 
Q 2881 2656 2881 3163 
Q 2881 3666 2632 3958 
Q 2384 4250 1959 4250 
Q 1534 4250 1286 3958 
Q 1038 3666 1038 3163 
Q 1038 2656 1286 2365 
Q 1534 2075 1959 2075 
z
" transform="scale(0.015625)"/>
       </defs>
       <use xlink:href="#DejaVuSans-34"/>
       <use xlink:href="#DejaVuSans-20" x="63.623047"/>
       <use xlink:href="#DejaVuSans-6f" x="95.410156"/>
       <use xlink:href="#DejaVuSans-72" x="156.591797"/>
       <use xlink:href="#DejaVuSans-20" x="197.705078"/>
       <use xlink:href="#DejaVuSans-39" x="229.492188"/>
      </g>
     </g>
    </g>
    <g id="text_6">
     <!-- Days of the dek -->
     <g transform="translate(164.640375 289.8755) scale(0.144 -0.144)">
      <defs>
       <path id="DejaVuSans-44" d="M 1259 4147 
L 1259 519 
L 2022 519 
Q 2988 519 3436 956 
Q 3884 1394 3884 2338 
Q 3884 3275 3436 3711 
Q 2988 4147 2022 4147 
L 1259 4147 
z
M 628 4666 
L 1925 4666 
Q 3281 4666 3915 4102 
Q 4550 3538 4550 2338 
Q 4550 1131 3912 565 
Q 3275 0 1925 0 
L 628 0 
L 628 4666 
z
" transform="scale(0.015625)"/>
       <path id="DejaVuSans-61" d="M 2194 1759 
Q 1497 1759 1228 1600 
Q 959 1441 959 1056 
Q 959 750 1161 570 
Q 1363 391 1709 391 
Q 2188 391 2477 730 
Q 2766 1069 2766 1631 
L 2766 1759 
L 2194 1759 
z
M 3341 1997 
L 3341 0 
L 2766 0 
L 2766 531 
Q 2569 213 2275 61 
Q 1981 -91 1556 -91 
Q 1019 -91 701 211 
Q 384 513 384 1019 
Q 384 1609 779 1909 
Q 1175 2209 1959 2209 
L 2766 2209 
L 2766 2266 
Q 2766 2663 2505 2880 
Q 2244 3097 1772 3097 
Q 1472 3097 1187 3025 
Q 903 2953 641 2809 
L 641 3341 
Q 956 3463 1253 3523 
Q 1550 3584 1831 3584 
Q 2591 3584 2966 3190 
Q 3341 2797 3341 1997 
z
" transform="scale(0.015625)"/>
       <path id="DejaVuSans-79" d="M 2059 -325 
Q 1816 -950 1584 -1140 
Q 1353 -1331 966 -1331 
L 506 -1331 
L 506 -850 
L 844 -850 
Q 1081 -850 1212 -737 
Q 1344 -625 1503 -206 
L 1606 56 
L 191 3500 
L 800 3500 
L 1894 763 
L 2988 3500 
L 3597 3500 
L 2059 -325 
z
" transform="scale(0.015625)"/>
       <path id="DejaVuSans-73" d="M 2834 3397 
L 2834 2853 
Q 2591 2978 2328 3040 
Q 2066 3103 1784 3103 
Q 1356 3103 1142 2972 
Q 928 2841 928 2578 
Q 928 2378 1081 2264 
Q 1234 2150 1697 2047 
L 1894 2003 
Q 2506 1872 2764 1633 
Q 3022 1394 3022 966 
Q 3022 478 2636 193 
Q 2250 -91 1575 -91 
Q 1294 -91 989 -36 
Q 684 19 347 128 
L 347 722 
Q 666 556 975 473 
Q 1284 391 1588 391 
Q 1994 391 2212 530 
Q 2431 669 2431 922 
Q 2431 1156 2273 1281 
Q 2116 1406 1581 1522 
L 1381 1569 
Q 847 1681 609 1914 
Q 372 2147 372 2553 
Q 372 3047 722 3315 
Q 1072 3584 1716 3584 
Q 2034 3584 2315 3537 
Q 2597 3491 2834 3397 
z
" transform="scale(0.015625)"/>
       <path id="DejaVuSans-66" d="M 2375 4863 
L 2375 4384 
L 1825 4384 
Q 1516 4384 1395 4259 
Q 1275 4134 1275 3809 
L 1275 3500 
L 2222 3500 
L 2222 3053 
L 1275 3053 
L 1275 0 
L 697 0 
L 697 3053 
L 147 3053 
L 147 3500 
L 697 3500 
L 697 3744 
Q 697 4328 969 4595 
Q 1241 4863 1831 4863 
L 2375 4863 
z
" transform="scale(0.015625)"/>
       <path id="DejaVuSans-74" d="M 1172 4494 
L 1172 3500 
L 2356 3500 
L 2356 3053 
L 1172 3053 
L 1172 1153 
Q 1172 725 1289 603 
Q 1406 481 1766 481 
L 2356 481 
L 2356 0 
L 1766 0 
Q 1100 0 847 248 
Q 594 497 594 1153 
L 594 3053 
L 172 3053 
L 172 3500 
L 594 3500 
L 594 4494 
L 1172 4494 
z
" transform="scale(0.015625)"/>
       <path id="DejaVuSans-68" d="M 3513 2113 
L 3513 0 
L 2938 0 
L 2938 2094 
Q 2938 2591 2744 2837 
Q 2550 3084 2163 3084 
Q 1697 3084 1428 2787 
Q 1159 2491 1159 1978 
L 1159 0 
L 581 0 
L 581 4863 
L 1159 4863 
L 1159 2956 
Q 1366 3272 1645 3428 
Q 1925 3584 2291 3584 
Q 2894 3584 3203 3211 
Q 3513 2838 3513 2113 
z
" transform="scale(0.015625)"/>
       <path id="DejaVuSans-65" d="M 3597 1894 
L 3597 1613 
L 953 1613 
Q 991 1019 1311 708 
Q 1631 397 2203 397 
Q 2534 397 2845 478 
Q 3156 559 3463 722 
L 3463 178 
Q 3153 47 2828 -22 
Q 2503 -91 2169 -91 
Q 1331 -91 842 396 
Q 353 884 353 1716 
Q 353 2575 817 3079 
Q 1281 3584 2069 3584 
Q 2775 3584 3186 3129 
Q 3597 2675 3597 1894 
z
M 3022 2063 
Q 3016 2534 2758 2815 
Q 2500 3097 2075 3097 
Q 1594 3097 1305 2825 
Q 1016 2553 972 2059 
L 3022 2063 
z
" transform="scale(0.015625)"/>
       <path id="DejaVuSans-64" d="M 2906 2969 
L 2906 4863 
L 3481 4863 
L 3481 0 
L 2906 0 
L 2906 525 
Q 2725 213 2448 61 
Q 2172 -91 1784 -91 
Q 1150 -91 751 415 
Q 353 922 353 1747 
Q 353 2572 751 3078 
Q 1150 3584 1784 3584 
Q 2172 3584 2448 3432 
Q 2725 3281 2906 2969 
z
M 947 1747 
Q 947 1113 1208 752 
Q 1469 391 1925 391 
Q 2381 391 2643 752 
Q 2906 1113 2906 1747 
Q 2906 2381 2643 2742 
Q 2381 3103 1925 3103 
Q 1469 3103 1208 2742 
Q 947 2381 947 1747 
z
" transform="scale(0.015625)"/>
       <path id="DejaVuSans-6b" d="M 581 4863 
L 1159 4863 
L 1159 1991 
L 2875 3500 
L 3609 3500 
L 1753 1863 
L 3688 0 
L 2938 0 
L 1159 1709 
L 1159 0 
L 581 0 
L 581 4863 
z
" transform="scale(0.015625)"/>
      </defs>
      <use xlink:href="#DejaVuSans-44"/>
      <use xlink:href="#DejaVuSans-61" x="77.001953"/>
      <use xlink:href="#DejaVuSans-79" x="138.28125"/>
      <use xlink:href="#DejaVuSans-73" x="197.460938"/>
      <use xlink:href="#DejaVuSans-20" x="249.560547"/>
      <use xlink:href="#DejaVuSans-6f" x="281.347656"/>
      <use xlink:href="#DejaVuSans-66" x="342.529297"/>
      <use xlink:href="#DejaVuSans-20" x="377.734375"/>
      <use xlink:href="#DejaVuSans-74" x="409.521484"/>
      <use xlink:href="#DejaVuSans-68" x="448.730469"/>
      <use xlink:href="#DejaVuSans-65" x="512.109375"/>
      <use xlink:href="#DejaVuSans-20" x="573.632812"/>
      <use xlink:href="#DejaVuSans-64" x="605.419922"/>
      <use xlink:href="#DejaVuSans-65" x="668.896484"/>
      <use xlink:href="#DejaVuSans-6b" x="730.419922"/>
     </g>
    </g>
   </g>
   <g id="matplotlib.axis_2">
    <g id="ytick_1">
     <g id="line2d_6">
      <defs>
       <path id="m4bdf7f54fc" d="M 0 0 
L -3.5 0 
" style="stroke: #000000; stroke-width: 0.8"/>
      </defs>
      <g>
       <use xlink:href="#m4bdf7f54fc" x="54" y="34.56" style="stroke: #000000; stroke-width: 0.8"/>
      </g>
     </g>
     <g id="text_7">
      <!-- 0.0 -->
      <g transform="translate(27.91625 39.119063) scale(0.12 -0.12)">
       <defs>
        <path id="DejaVuSans-2e" d="M 684 794 
L 1344 794 
L 1344 0 
L 684 0 
L 684 794 
z
" transform="scale(0.015625)"/>
       </defs>
       <use xlink:href="#DejaVuSans-30"/>
       <use xlink:href="#DejaVuSans-2e" x="63.623047"/>
       <use xlink:href="#DejaVuSans-30" x="95.410156"/>
      </g>
     </g>
    </g>
    <g id="ytick_2">
     <g id="line2d_7">
      <g>
       <use xlink:href="#m4bdf7f54fc" x="54" y="76.8" style="stroke: #000000; stroke-width: 0.8"/>
      </g>
     </g>
     <g id="text_8">
      <!-- 0.2 -->
      <g transform="translate(27.91625 81.359063) scale(0.12 -0.12)">
       <use xlink:href="#DejaVuSans-30"/>
       <use xlink:href="#DejaVuSans-2e" x="63.623047"/>
       <use xlink:href="#DejaVuSans-32" x="95.410156"/>
      </g>
     </g>
    </g>
    <g id="ytick_3">
     <g id="line2d_8">
      <g>
       <use xlink:href="#m4bdf7f54fc" x="54" y="119.04" style="stroke: #000000; stroke-width: 0.8"/>
      </g>
     </g>
     <g id="text_9">
      <!-- 0.4 -->
      <g transform="translate(27.91625 123.599063) scale(0.12 -0.12)">
       <use xlink:href="#DejaVuSans-30"/>
       <use xlink:href="#DejaVuSans-2e" x="63.623047"/>
       <use xlink:href="#DejaVuSans-34" x="95.410156"/>
      </g>
     </g>
    </g>
    <g id="ytick_4">
     <g id="line2d_9">
      <g>
       <use xlink:href="#m4bdf7f54fc" x="54" y="161.28" style="stroke: #000000; stroke-width: 0.8"/>
      </g>
     </g>
     <g id="text_10">
      <!-- 0.6 -->
      <g transform="translate(27.91625 165.839063) scale(0.12 -0.12)">
       <use xlink:href="#DejaVuSans-30"/>
       <use xlink:href="#DejaVuSans-2e" x="63.623047"/>
       <use xlink:href="#DejaVuSans-36" x="95.410156"/>
      </g>
     </g>
    </g>
    <g id="ytick_5">
     <g id="line2d_10">
      <g>
       <use xlink:href="#m4bdf7f54fc" x="54" y="203.52" style="stroke: #000000; stroke-width: 0.8"/>
      </g>
     </g>
     <g id="text_11">
      <!-- 0.8 -->
      <g transform="translate(27.91625 208.079063) scale(0.12 -0.12)">
       <use xlink:href="#DejaVuSans-30"/>
       <use xlink:href="#DejaVuSans-2e" x="63.623047"/>
       <use xlink:href="#DejaVuSans-38" x="95.410156"/>
      </g>
     </g>
    </g>
    <g id="ytick_6">
     <g id="line2d_11">
      <g>
       <use xlink:href="#m4bdf7f54fc" x="54" y="245.76" style="stroke: #000000; stroke-width: 0.8"/>
      </g>
     </g>
     <g id="text_12">
      <!-- 1.0 -->
      <g transform="translate(27.91625 250.319062) scale(0.12 -0.12)">
       <use xlink:href="#DejaVuSans-31"/>
       <use xlink:href="#DejaVuSans-2e" x="63.623047"/>
       <use xlink:href="#DejaVuSans-30" x="95.410156"/>
      </g>
     </g>
    </g>
    <g id="text_13">
     <!-- Proportion of the day -->
     <g transform="translate(20.9215 221.45175) rotate(-90) scale(0.144 -0.144)">
      <defs>
       <path id="DejaVuSans-50" d="M 1259 4147 
L 1259 2394 
L 2053 2394 
Q 2494 2394 2734 2622 
Q 2975 2850 2975 3272 
Q 2975 3691 2734 3919 
Q 2494 4147 2053 4147 
L 1259 4147 
z
M 628 4666 
L 2053 4666 
Q 2838 4666 3239 4311 
Q 3641 3956 3641 3272 
Q 3641 2581 3239 2228 
Q 2838 1875 2053 1875 
L 1259 1875 
L 1259 0 
L 628 0 
L 628 4666 
z
" transform="scale(0.015625)"/>
       <path id="DejaVuSans-70" d="M 1159 525 
L 1159 -1331 
L 581 -1331 
L 581 3500 
L 1159 3500 
L 1159 2969 
Q 1341 3281 1617 3432 
Q 1894 3584 2278 3584 
Q 2916 3584 3314 3078 
Q 3713 2572 3713 1747 
Q 3713 922 3314 415 
Q 2916 -91 2278 -91 
Q 1894 -91 1617 61 
Q 1341 213 1159 525 
z
M 3116 1747 
Q 3116 2381 2855 2742 
Q 2594 3103 2138 3103 
Q 1681 3103 1420 2742 
Q 1159 2381 1159 1747 
Q 1159 1113 1420 752 
Q 1681 391 2138 391 
Q 2594 391 2855 752 
Q 3116 1113 3116 1747 
z
" transform="scale(0.015625)"/>
       <path id="DejaVuSans-69" d="M 603 3500 
L 1178 3500 
L 1178 0 
L 603 0 
L 603 3500 
z
M 603 4863 
L 1178 4863 
L 1178 4134 
L 603 4134 
L 603 4863 
z
" transform="scale(0.015625)"/>
       <path id="DejaVuSans-6e" d="M 3513 2113 
L 3513 0 
L 2938 0 
L 2938 2094 
Q 2938 2591 2744 2837 
Q 2550 3084 2163 3084 
Q 1697 3084 1428 2787 
Q 1159 2491 1159 1978 
L 1159 0 
L 581 0 
L 581 3500 
L 1159 3500 
L 1159 2956 
Q 1366 3272 1645 3428 
Q 1925 3584 2291 3584 
Q 2894 3584 3203 3211 
Q 3513 2838 3513 2113 
z
" transform="scale(0.015625)"/>
      </defs>
      <use xlink:href="#DejaVuSans-50"/>
      <use xlink:href="#DejaVuSans-72" x="58.552734"/>
      <use xlink:href="#DejaVuSans-6f" x="97.416016"/>
      <use xlink:href="#DejaVuSans-70" x="158.597656"/>
      <use xlink:href="#DejaVuSans-6f" x="222.074219"/>
      <use xlink:href="#DejaVuSans-72" x="283.255859"/>
      <use xlink:href="#DejaVuSans-74" x="324.369141"/>
      <use xlink:href="#DejaVuSans-69" x="363.578125"/>
      <use xlink:href="#DejaVuSans-6f" x="391.361328"/>
      <use xlink:href="#DejaVuSans-6e" x="452.542969"/>
      <use xlink:href="#DejaVuSans-20" x="515.921875"/>
      <use xlink:href="#DejaVuSans-6f" x="547.708984"/>
      <use xlink:href="#DejaVuSans-66" x="608.890625"/>
      <use xlink:href="#DejaVuSans-20" x="644.095703"/>
      <use xlink:href="#DejaVuSans-74" x="675.882812"/>
      <use xlink:href="#DejaVuSans-68" x="715.091797"/>
      <use xlink:href="#DejaVuSans-65" x="778.470703"/>
      <use xlink:href="#DejaVuSans-20" x="839.994141"/>
      <use xlink:href="#DejaVuSans-64" x="871.78125"/>
      <use xlink:href="#DejaVuSans-61" x="935.257812"/>
      <use xlink:href="#DejaVuSans-79" x="996.537109"/>
     </g>
    </g>
   </g>
   <g id="patch_18">
    <path d="M 54 256.32 
L 54 34.56 
" style="fill: none; stroke: #000000; stroke-width: 0.8; stroke-linejoin: miter; stroke-linecap: square"/>
   </g>
   <g id="patch_19">
    <path d="M 388.8 256.32 
L 388.8 34.56 
" style="fill: none; stroke: #000000; stroke-width: 0.8; stroke-linejoin: miter; stroke-linecap: square"/>
   </g>
   <g id="patch_20">
    <path d="M 54 256.32 
L 388.8 256.32 
" style="fill: none; stroke: #000000; stroke-width: 0.8; stroke-linejoin: miter; stroke-linecap: square"/>
   </g>
   <g id="patch_21">
    <path d="M 54 34.56 
L 388.8 34.56 
" style="fill: none; stroke: #000000; stroke-width: 0.8; stroke-linejoin: miter; stroke-linecap: square"/>
   </g>
   <g id="text_14">
    <path d="M 86.91694 69.58125 
L 89.18569 69.58125 
L 89.18569 72.310625 
L 86.91694 72.310625 
L 86.91694 69.58125 
z
M 100.486041 63.661875 
Q 102.043229 63.995313 102.916354 65.050625 
Q 103.792916 66.1025 103.792916 67.649375 
Q 103.792916 70.02125 102.160104 71.324063 
Q 100.527291 72.623438 97.519479 72.623438 
Q 96.512291 72.623438 95.443229 72.424063 
Q 94.374166 72.224688 93.236354 71.825938 
L 93.236354 69.7325 
Q 94.136979 70.258438 95.209479 70.526563 
Q 96.285416 70.794688 97.457604 70.794688 
Q 99.496041 70.794688 100.565104 69.990313 
Q 101.634166 69.185938 101.634166 67.649375 
Q 101.634166 66.229688 100.640729 65.432188 
Q 99.647291 64.63125 97.876979 64.63125 
L 96.006979 64.63125 
L 96.006979 62.847188 
L 97.962916 62.847188 
Q 99.561354 62.847188 100.410416 62.207813 
Q 101.259479 61.568438 101.259479 60.365313 
Q 101.259479 59.13125 100.382916 58.47125 
Q 99.509791 57.807813 97.876979 57.807813 
Q 96.983229 57.807813 95.962291 58.00375 
Q 94.941354 58.19625 93.717604 58.601875 
L 93.717604 56.67 
Q 94.955104 56.32625 96.034479 56.154375 
Q 97.113854 55.9825 98.069479 55.9825 
Q 100.541041 55.9825 101.977916 57.106563 
Q 103.418229 58.227188 103.418229 60.138438 
Q 103.418229 61.472188 102.655104 62.39 
Q 101.891979 63.307813 100.486041 63.661875 
z
" style="fill: #ffffff; stroke: #000000"/>
    <path d="M 86.91694 69.58125 
L 89.18569 69.58125 
L 89.18569 72.310625 
L 86.91694 72.310625 
L 86.91694 69.58125 
z
M 100.486041 63.661875 
Q 102.043229 63.995313 102.916354 65.050625 
Q 103.792916 66.1025 103.792916 67.649375 
Q 103.792916 70.02125 102.160104 71.324063 
Q 100.527291 72.623438 97.519479 72.623438 
Q 96.512291 72.623438 95.443229 72.424063 
Q 94.374166 72.224688 93.236354 71.825938 
L 93.236354 69.7325 
Q 94.136979 70.258438 95.209479 70.526563 
Q 96.285416 70.794688 97.457604 70.794688 
Q 99.496041 70.794688 100.565104 69.990313 
Q 101.634166 69.185938 101.634166 67.649375 
Q 101.634166 66.229688 100.640729 65.432188 
Q 99.647291 64.63125 97.876979 64.63125 
L 96.006979 64.63125 
L 96.006979 62.847188 
L 97.962916 62.847188 
Q 99.561354 62.847188 100.410416 62.207813 
Q 101.259479 61.568438 101.259479 60.365313 
Q 101.259479 59.13125 100.382916 58.47125 
Q 99.509791 57.807813 97.876979 57.807813 
Q 96.983229 57.807813 95.962291 58.00375 
Q 94.941354 58.19625 93.717604 58.601875 
L 93.717604 56.67 
Q 94.955104 56.32625 96.034479 56.154375 
Q 97.113854 55.9825 98.069479 55.9825 
Q 100.541041 55.9825 101.977916 57.106563 
Q 103.418229 58.227188 103.418229 60.138438 
Q 103.418229 61.472188 102.655104 62.39 
Q 101.891979 63.307813 100.486041 63.661875 
z
" style="fill: #ffffff"/>
   </g>
   <g id="text_15">
    <path d="M 150.086751 69.58125 
L 152.355501 69.58125 
L 152.355501 72.310625 
L 150.086751 72.310625 
L 150.086751 69.58125 
z
M 163.655853 63.661875 
Q 165.21304 63.995313 166.086165 65.050625 
Q 166.962728 66.1025 166.962728 67.649375 
Q 166.962728 70.02125 165.329915 71.324063 
Q 163.697103 72.623438 160.68929 72.623438 
Q 159.682103 72.623438 158.61304 72.424063 
Q 157.543978 72.224688 156.406165 71.825938 
L 156.406165 69.7325 
Q 157.30679 70.258438 158.37929 70.526563 
Q 159.455228 70.794688 160.627415 70.794688 
Q 162.665853 70.794688 163.734915 69.990313 
Q 164.803978 69.185938 164.803978 67.649375 
Q 164.803978 66.229688 163.81054 65.432188 
Q 162.817103 64.63125 161.04679 64.63125 
L 159.17679 64.63125 
L 159.17679 62.847188 
L 161.132728 62.847188 
Q 162.731165 62.847188 163.580228 62.207813 
Q 164.42929 61.568438 164.42929 60.365313 
Q 164.42929 59.13125 163.552728 58.47125 
Q 162.679603 57.807813 161.04679 57.807813 
Q 160.15304 57.807813 159.132103 58.00375 
Q 158.111165 58.19625 156.887415 58.601875 
L 156.887415 56.67 
Q 158.124915 56.32625 159.20429 56.154375 
Q 160.283665 55.9825 161.23929 55.9825 
Q 163.710853 55.9825 165.147728 57.106563 
Q 166.58804 58.227188 166.58804 60.138438 
Q 166.58804 61.472188 165.824915 62.39 
Q 165.06179 63.307813 163.655853 63.661875 
z
" style="fill: #ffffff; stroke: #000000"/>
    <path d="M 150.086751 69.58125 
L 152.355501 69.58125 
L 152.355501 72.310625 
L 150.086751 72.310625 
L 150.086751 69.58125 
z
M 163.655853 63.661875 
Q 165.21304 63.995313 166.086165 65.050625 
Q 166.962728 66.1025 166.962728 67.649375 
Q 166.962728 70.02125 165.329915 71.324063 
Q 163.697103 72.623438 160.68929 72.623438 
Q 159.682103 72.623438 158.61304 72.424063 
Q 157.543978 72.224688 156.406165 71.825938 
L 156.406165 69.7325 
Q 157.30679 70.258438 158.37929 70.526563 
Q 159.455228 70.794688 160.627415 70.794688 
Q 162.665853 70.794688 163.734915 69.990313 
Q 164.803978 69.185938 164.803978 67.649375 
Q 164.803978 66.229688 163.81054 65.432188 
Q 162.817103 64.63125 161.04679 64.63125 
L 159.17679 64.63125 
L 159.17679 62.847188 
L 161.132728 62.847188 
Q 162.731165 62.847188 163.580228 62.207813 
Q 164.42929 61.568438 164.42929 60.365313 
Q 164.42929 59.13125 163.552728 58.47125 
Q 162.679603 57.807813 161.04679 57.807813 
Q 160.15304 57.807813 159.132103 58.00375 
Q 158.111165 58.19625 156.887415 58.601875 
L 156.887415 56.67 
Q 158.124915 56.32625 159.20429 56.154375 
Q 160.283665 55.9825 161.23929 55.9825 
Q 163.710853 55.9825 165.147728 57.106563 
Q 166.58804 58.227188 166.58804 60.138438 
Q 166.58804 61.472188 165.824915 62.39 
Q 165.06179 63.307813 163.655853 63.661875 
z
" style="fill: #ffffff"/>
   </g>
   <g id="text_16">
    <path d="M 213.256562 69.58125 
L 215.525312 69.58125 
L 215.525312 72.310625 
L 213.256562 72.310625 
L 213.256562 69.58125 
z
M 226.825664 63.661875 
Q 228.382852 63.995313 229.255977 65.050625 
Q 230.132539 66.1025 230.132539 67.649375 
Q 230.132539 70.02125 228.499727 71.324063 
Q 226.866914 72.623438 223.859102 72.623438 
Q 222.851914 72.623438 221.782852 72.424063 
Q 220.713789 72.224688 219.575977 71.825938 
L 219.575977 69.7325 
Q 220.476602 70.258438 221.549102 70.526563 
Q 222.625039 70.794688 223.797227 70.794688 
Q 225.835664 70.794688 226.904727 69.990313 
Q 227.973789 69.185938 227.973789 67.649375 
Q 227.973789 66.229688 226.980352 65.432188 
Q 225.986914 64.63125 224.216602 64.63125 
L 222.346602 64.63125 
L 222.346602 62.847188 
L 224.302539 62.847188 
Q 225.900977 62.847188 226.750039 62.207813 
Q 227.599102 61.568438 227.599102 60.365313 
Q 227.599102 59.13125 226.722539 58.47125 
Q 225.849414 57.807813 224.216602 57.807813 
Q 223.322852 57.807813 222.301914 58.00375 
Q 221.280977 58.19625 220.057227 58.601875 
L 220.057227 56.67 
Q 221.294727 56.32625 222.374102 56.154375 
Q 223.453477 55.9825 224.409102 55.9825 
Q 226.880664 55.9825 228.317539 57.106563 
Q 229.757852 58.227188 229.757852 60.138438 
Q 229.757852 61.472188 228.994727 62.39 
Q 228.231602 63.307813 226.825664 63.661875 
z
" style="fill: #ffffff; stroke: #000000"/>
    <path d="M 213.256562 69.58125 
L 215.525312 69.58125 
L 215.525312 72.310625 
L 213.256562 72.310625 
L 213.256562 69.58125 
z
M 226.825664 63.661875 
Q 228.382852 63.995313 229.255977 65.050625 
Q 230.132539 66.1025 230.132539 67.649375 
Q 230.132539 70.02125 228.499727 71.324063 
Q 226.866914 72.623438 223.859102 72.623438 
Q 222.851914 72.623438 221.782852 72.424063 
Q 220.713789 72.224688 219.575977 71.825938 
L 219.575977 69.7325 
Q 220.476602 70.258438 221.549102 70.526563 
Q 222.625039 70.794688 223.797227 70.794688 
Q 225.835664 70.794688 226.904727 69.990313 
Q 227.973789 69.185938 227.973789 67.649375 
Q 227.973789 66.229688 226.980352 65.432188 
Q 225.986914 64.63125 224.216602 64.63125 
L 222.346602 64.63125 
L 222.346602 62.847188 
L 224.302539 62.847188 
Q 225.900977 62.847188 226.750039 62.207813 
Q 227.599102 61.568438 227.599102 60.365313 
Q 227.599102 59.13125 226.722539 58.47125 
Q 225.849414 57.807813 224.216602 57.807813 
Q 223.322852 57.807813 222.301914 58.00375 
Q 221.280977 58.19625 220.057227 58.601875 
L 220.057227 56.67 
Q 221.294727 56.32625 222.374102 56.154375 
Q 223.453477 55.9825 224.409102 55.9825 
Q 226.880664 55.9825 228.317539 57.106563 
Q 229.757852 58.227188 229.757852 60.138438 
Q 229.757852 61.472188 228.994727 62.39 
Q 228.231602 63.307813 226.825664 63.661875 
z
" style="fill: #ffffff"/>
   </g>
   <g id="text_17">
    <path d="M 280.300436 144.405313 
L 283.844499 144.405313 
L 283.844499 132.167812 
L 279.987624 132.94125 
L 279.987624 130.964687 
L 283.823874 130.19125 
L 285.992936 130.19125 
L 285.992936 144.405313 
L 289.536999 144.405313 
L 289.536999 146.230625 
L 280.300436 146.230625 
L 280.300436 144.405313 
z
" style="fill: #ffffff; stroke: #000000"/>
    <path d="M 280.300436 144.405313 
L 283.844499 144.405313 
L 283.844499 132.167812 
L 279.987624 132.94125 
L 279.987624 130.964687 
L 283.823874 130.19125 
L 285.992936 130.19125 
L 285.992936 144.405313 
L 289.536999 144.405313 
L 289.536999 146.230625 
L 280.300436 146.230625 
L 280.300436 144.405313 
z
" style="fill: #ffffff"/>
   </g>
   <g id="text_18">
    <path d="M 343.470248 144.405313 
L 347.01431 144.405313 
L 347.01431 132.167812 
L 343.157435 132.94125 
L 343.157435 130.964687 
L 346.993685 130.19125 
L 349.162748 130.19125 
L 349.162748 144.405313 
L 352.70681 144.405313 
L 352.70681 146.230625 
L 343.470248 146.230625 
L 343.470248 144.405313 
z
" style="fill: #ffffff; stroke: #000000"/>
    <path d="M 343.470248 144.405313 
L 347.01431 144.405313 
L 347.01431 132.167812 
L 343.157435 132.94125 
L 343.157435 130.964687 
L 346.993685 130.19125 
L 349.162748 130.19125 
L 349.162748 144.405313 
L 352.70681 144.405313 
L 352.70681 146.230625 
L 343.470248 146.230625 
L 343.470248 144.405313 
z
" style="fill: #ffffff"/>
   </g>
   <g id="text_19">
    <path d="M 86.91694 143.50125 
L 89.18569 143.50125 
L 89.18569 146.230625 
L 86.91694 146.230625 
L 86.91694 143.50125 
z
M 99.874166 132.081875 
L 94.394791 140.644687 
L 99.874166 140.644687 
L 99.874166 132.081875 
z
M 99.303541 130.19125 
L 102.032916 130.19125 
L 102.032916 140.644687 
L 104.322291 140.644687 
L 104.322291 142.449375 
L 102.032916 142.449375 
L 102.032916 146.230625 
L 99.874166 146.230625 
L 99.874166 142.449375 
L 92.634791 142.449375 
L 92.634791 140.355937 
L 99.303541 130.19125 
z
" style="fill: #ffffff; stroke: #000000"/>
    <path d="M 86.91694 143.50125 
L 89.18569 143.50125 
L 89.18569 146.230625 
L 86.91694 146.230625 
L 86.91694 143.50125 
z
M 99.874166 132.081875 
L 94.394791 140.644687 
L 99.874166 140.644687 
L 99.874166 132.081875 
z
M 99.303541 130.19125 
L 102.032916 130.19125 
L 102.032916 140.644687 
L 104.322291 140.644687 
L 104.322291 142.449375 
L 102.032916 142.449375 
L 102.032916 146.230625 
L 99.874166 146.230625 
L 99.874166 142.449375 
L 92.634791 142.449375 
L 92.634791 140.355937 
L 99.303541 130.19125 
z
" style="fill: #ffffff"/>
   </g>
   <g id="text_20">
    <path d="M 150.086751 143.50125 
L 152.355501 143.50125 
L 152.355501 146.230625 
L 150.086751 146.230625 
L 150.086751 143.50125 
z
M 163.043978 132.081875 
L 157.564603 140.644687 
L 163.043978 140.644687 
L 163.043978 132.081875 
z
M 162.473353 130.19125 
L 165.202728 130.19125 
L 165.202728 140.644687 
L 167.492103 140.644687 
L 167.492103 142.449375 
L 165.202728 142.449375 
L 165.202728 146.230625 
L 163.043978 146.230625 
L 163.043978 142.449375 
L 155.804603 142.449375 
L 155.804603 140.355937 
L 162.473353 130.19125 
z
" style="fill: #ffffff; stroke: #000000"/>
    <path d="M 150.086751 143.50125 
L 152.355501 143.50125 
L 152.355501 146.230625 
L 150.086751 146.230625 
L 150.086751 143.50125 
z
M 163.043978 132.081875 
L 157.564603 140.644687 
L 163.043978 140.644687 
L 163.043978 132.081875 
z
M 162.473353 130.19125 
L 165.202728 130.19125 
L 165.202728 140.644687 
L 167.492103 140.644687 
L 167.492103 142.449375 
L 165.202728 142.449375 
L 165.202728 146.230625 
L 163.043978 146.230625 
L 163.043978 142.449375 
L 155.804603 142.449375 
L 155.804603 140.355937 
L 162.473353 130.19125 
z
" style="fill: #ffffff"/>
   </g>
   <g id="text_21">
    <path d="M 213.256562 143.50125 
L 215.525312 143.50125 
L 215.525312 146.230625 
L 213.256562 146.230625 
L 213.256562 143.50125 
z
M 226.213789 132.081875 
L 220.734414 140.644687 
L 226.213789 140.644687 
L 226.213789 132.081875 
z
M 225.643164 130.19125 
L 228.372539 130.19125 
L 228.372539 140.644687 
L 230.661914 140.644687 
L 230.661914 142.449375 
L 228.372539 142.449375 
L 228.372539 146.230625 
L 226.213789 146.230625 
L 226.213789 142.449375 
L 218.974414 142.449375 
L 218.974414 140.355937 
L 225.643164 130.19125 
z
" style="fill: #ffffff; stroke: #000000"/>
    <path d="M 213.256562 143.50125 
L 215.525312 143.50125 
L 215.525312 146.230625 
L 213.256562 146.230625 
L 213.256562 143.50125 
z
M 226.213789 132.081875 
L 220.734414 140.644687 
L 226.213789 140.644687 
L 226.213789 132.081875 
z
M 225.643164 130.19125 
L 228.372539 130.19125 
L 228.372539 140.644687 
L 230.661914 140.644687 
L 230.661914 142.449375 
L 228.372539 142.449375 
L 228.372539 146.230625 
L 226.213789 146.230625 
L 226.213789 142.449375 
L 218.974414 142.449375 
L 218.974414 140.355937 
L 225.643164 130.19125 
z
" style="fill: #ffffff"/>
   </g>
   <g id="text_22">
    <!-- Schedule 3 -->
    <g transform="translate(173.45205 28.56) scale(0.1728 -0.1728)">
     <defs>
      <path id="DejaVuSans-53" d="M 3425 4513 
L 3425 3897 
Q 3066 4069 2747 4153 
Q 2428 4238 2131 4238 
Q 1616 4238 1336 4038 
Q 1056 3838 1056 3469 
Q 1056 3159 1242 3001 
Q 1428 2844 1947 2747 
L 2328 2669 
Q 3034 2534 3370 2195 
Q 3706 1856 3706 1288 
Q 3706 609 3251 259 
Q 2797 -91 1919 -91 
Q 1588 -91 1214 -16 
Q 841 59 441 206 
L 441 856 
Q 825 641 1194 531 
Q 1563 422 1919 422 
Q 2459 422 2753 634 
Q 3047 847 3047 1241 
Q 3047 1584 2836 1778 
Q 2625 1972 2144 2069 
L 1759 2144 
Q 1053 2284 737 2584 
Q 422 2884 422 3419 
Q 422 4038 858 4394 
Q 1294 4750 2059 4750 
Q 2388 4750 2728 4690 
Q 3069 4631 3425 4513 
z
" transform="scale(0.015625)"/>
      <path id="DejaVuSans-63" d="M 3122 3366 
L 3122 2828 
Q 2878 2963 2633 3030 
Q 2388 3097 2138 3097 
Q 1578 3097 1268 2742 
Q 959 2388 959 1747 
Q 959 1106 1268 751 
Q 1578 397 2138 397 
Q 2388 397 2633 464 
Q 2878 531 3122 666 
L 3122 134 
Q 2881 22 2623 -34 
Q 2366 -91 2075 -91 
Q 1284 -91 818 406 
Q 353 903 353 1747 
Q 353 2603 823 3093 
Q 1294 3584 2113 3584 
Q 2378 3584 2631 3529 
Q 2884 3475 3122 3366 
z
" transform="scale(0.015625)"/>
      <path id="DejaVuSans-75" d="M 544 1381 
L 544 3500 
L 1119 3500 
L 1119 1403 
Q 1119 906 1312 657 
Q 1506 409 1894 409 
Q 2359 409 2629 706 
Q 2900 1003 2900 1516 
L 2900 3500 
L 3475 3500 
L 3475 0 
L 2900 0 
L 2900 538 
Q 2691 219 2414 64 
Q 2138 -91 1772 -91 
Q 1169 -91 856 284 
Q 544 659 544 1381 
z
M 1991 3584 
L 1991 3584 
z
" transform="scale(0.015625)"/>
      <path id="DejaVuSans-6c" d="M 603 4863 
L 1178 4863 
L 1178 0 
L 603 0 
L 603 4863 
z
" transform="scale(0.015625)"/>
     </defs>
     <use xlink:href="#DejaVuSans-53"/>
     <use xlink:href="#DejaVuSans-63" x="63.476562"/>
     <use xlink:href="#DejaVuSans-68" x="118.457031"/>
     <use xlink:href="#DejaVuSans-65" x="181.835938"/>
     <use xlink:href="#DejaVuSans-64" x="243.359375"/>
     <use xlink:href="#DejaVuSans-75" x="306.835938"/>
     <use xlink:href="#DejaVuSans-6c" x="370.214844"/>
     <use xlink:href="#DejaVuSans-65" x="397.998047"/>
     <use xlink:href="#DejaVuSans-20" x="459.521484"/>
     <use xlink:href="#DejaVuSans-33" x="491.308594"/>
    </g>
   </g>
   <g id="legend_1">
    <g id="patch_22">
     <path d="M 296.17875 88.353 
L 378.72 88.353 
Q 381.6 88.353 381.6 85.473 
L 381.6 44.64 
Q 381.6 41.76 378.72 41.76 
L 296.17875 41.76 
Q 293.29875 41.76 293.29875 44.64 
L 293.29875 85.473 
Q 293.29875 88.353 296.17875 88.353 
z
" style="fill: #ffffff; opacity: 0.8; stroke: #cccccc; stroke-linejoin: miter"/>
    </g>
    <g id="patch_23">
     <path d="M 299.05875 58.46175 
L 327.85875 58.46175 
L 327.85875 48.38175 
L 299.05875 48.38175 
z
" style="fill: #377eb8"/>
    </g>
    <g id="text_23">
     <!-- Rest -->
     <g transform="translate(339.37875 58.46175) scale(0.144 -0.144)">
      <defs>
       <path id="DejaVuSans-52" d="M 2841 2188 
Q 3044 2119 3236 1894 
Q 3428 1669 3622 1275 
L 4263 0 
L 3584 0 
L 2988 1197 
Q 2756 1666 2539 1819 
Q 2322 1972 1947 1972 
L 1259 1972 
L 1259 0 
L 628 0 
L 628 4666 
L 2053 4666 
Q 2853 4666 3247 4331 
Q 3641 3997 3641 3322 
Q 3641 2881 3436 2590 
Q 3231 2300 2841 2188 
z
M 1259 4147 
L 1259 2491 
L 2053 2491 
Q 2509 2491 2742 2702 
Q 2975 2913 2975 3322 
Q 2975 3731 2742 3939 
Q 2509 4147 2053 4147 
L 1259 4147 
z
" transform="scale(0.015625)"/>
      </defs>
      <use xlink:href="#DejaVuSans-52"/>
      <use xlink:href="#DejaVuSans-65" x="64.982422"/>
      <use xlink:href="#DejaVuSans-73" x="126.505859"/>
      <use xlink:href="#DejaVuSans-74" x="178.605469"/>
     </g>
    </g>
    <g id="patch_24">
     <path d="M 299.05875 79.59825 
L 327.85875 79.59825 
L 327.85875 69.51825 
L 299.05875 69.51825 
z
" style="fill: #e41a1c"/>
    </g>
    <g id="text_24">
     <!-- Work -->
     <g transform="translate(339.37875 79.59825) scale(0.144 -0.144)">
      <defs>
       <path id="DejaVuSans-57" d="M 213 4666 
L 850 4666 
L 1831 722 
L 2809 4666 
L 3519 4666 
L 4500 722 
L 5478 4666 
L 6119 4666 
L 4947 0 
L 4153 0 
L 3169 4050 
L 2175 0 
L 1381 0 
L 213 4666 
z
" transform="scale(0.015625)"/>
      </defs>
      <use xlink:href="#DejaVuSans-57"/>
      <use xlink:href="#DejaVuSans-6f" x="93.001953"/>
      <use xlink:href="#DejaVuSans-72" x="154.183594"/>
      <use xlink:href="#DejaVuSans-6b" x="195.296875"/>
     </g>
    </g>
   </g>
  </g>
 </g>
 <defs>
  <clipPath id="p863a9af06f">
   <rect x="54" y="34.56" width="334.8" height="221.76"/>
  </clipPath>
 </defs>
</svg>
