<?xml version="1.0" encoding="UTF-8" standalone="no"?>
<!-- Created with Inkscape (http://www.inkscape.org/) -->

<svg
   width="905.62469mm"
   height="950.86707mm"
   viewBox="0 0 905.62469 950.86707"
   version="1.1"
   id="svg1"
   inkscape:version="1.3.2 (091e20e, 2023-11-25)"
   sodipodi:docname="tetradecagon-center-star.svg"
   xmlns:inkscape="http://www.inkscape.org/namespaces/inkscape"
   xmlns:sodipodi="http://sodipodi.sourceforge.net/DTD/sodipodi-0.dtd"
   xmlns="http://www.w3.org/2000/svg"
   xmlns:svg="http://www.w3.org/2000/svg">
  <sodipodi:namedview
     id="namedview1"
     pagecolor="#ffffff"
     bordercolor="#000000"
     borderopacity="0.25"
     inkscape:showpageshadow="2"
     inkscape:pageopacity="0.0"
     inkscape:pagecheckerboard="0"
     inkscape:deskcolor="#d1d1d1"
     inkscape:document-units="mm"
     inkscape:zoom="0.2102413"
     inkscape:cx="1709.9399"
     inkscape:cy="1795.5559"
     inkscape:window-width="1472"
     inkscape:window-height="896"
     inkscape:window-x="0"
     inkscape:window-y="32"
     inkscape:window-maximized="0"
     inkscape:current-layer="layer1" />
  <defs
     id="defs1" />
  <g
     inkscape:label="Layer 1"
     inkscape:groupmode="layer"
     id="layer1"
     transform="translate(347.66248,327.02495)">
    <g
       id="g77"
       transform="matrix(0.08176075,0.2516337,-0.2516337,0.08176075,131.38915,-1317.6721)">
      <polyline
         points=" 976.19,475.528 23.81,475.528"
         id="polyline11121-8-24"
         style="display:inline;fill-opacity:0;stroke:#000000;stroke-width:4.63425;stroke-dasharray:none;stroke-opacity:1"
         transform="matrix(-2.2168931,3.0512916,-0.80901699,-0.58778525,6732.4959,560.2237)" />
      <polyline
         points=" 976.19,475.528 23.81,475.528"
         id="polyline11121-8-81-0"
         style="display:inline;fill-opacity:0;stroke:#000000;stroke-width:4.63425;stroke-dasharray:none;stroke-opacity:1"
         transform="matrix(-2.2168931,-3.0512916,0.80901699,-0.58778526,5963.0749,3611.5152)" />
      <polyline
         points=" 976.19,475.528 23.81,475.528"
         id="polyline11121-8-1-6"
         style="display:inline;fill-opacity:0;stroke:#000000;stroke-width:4.63425;stroke-dasharray:none;stroke-opacity:1"
         transform="matrix(1.0311344e-8,-3.7716038,1,0,4763.8109,3692.1628)" />
      <polyline
         points=" 976.19,475.528 23.81,475.528"
         id="polyline11121-8-9-7"
         style="display:inline;fill-opacity:0;stroke:#000000;stroke-width:4.63425;stroke-dasharray:none;stroke-opacity:1"
         transform="matrix(-3.5870084,-1.1654897,0.309017,-0.95105652,6885.8959,2841.3597)" />
      <polyline
         points=" 976.19,475.528 23.81,475.528"
         id="polyline11121-8-8-1"
         style="display:inline;fill-opacity:0;stroke:#000000;stroke-width:4.63425;stroke-dasharray:none;stroke-opacity:1"
         transform="matrix(-3.5870084,1.1654897,-0.30901699,-0.95105651,7179.7889,1675.8704)" />
      <path
         style="fill:#0d0887;fill-opacity:1;stroke:#000000;stroke-width:9;stroke-linecap:square;stroke-linejoin:bevel;stroke-miterlimit:110;stroke-dasharray:none;stroke-opacity:0.99"
         d="m 6281.7049,351.42537 c -340.214,-111.72848 -680.849,-222.22122 -1021.616,-332.246116 -3.152,-2.12852 -13.791,-4.34009 -8.812,2.18767 51.874,75.35241 107.521,148.059286 160.821,222.413656 75.77,104.82378 153.13,208.58318 227.622,314.2729 3.593,8.30425 13.863,-1.20053 19.922,-1.1267 202.693,-65.05274 404.782,-131.97595 607.279,-197.63091 3.546,-2.69366 16.912,-2.44797 14.784,-7.8705 z"
         id="path31374-5"
         inkscape:label="9" />
      <path
         style="fill:#0d0887;fill-opacity:1;stroke:#000000;stroke-width:9;stroke-linecap:square;stroke-linejoin:bevel;stroke-miterlimit:110;stroke-dasharray:none;stroke-opacity:0.99"
         d="m 5226.3089,15.264294 c -231.517,73.82559 -462.592,149.681106 -693.896,224.417946 -112.959,36.97323 -226.391,72.7812 -339.077,110.40893 -4.77,4.96136 7.927,5.41433 10.243,7.21407 209.428,68.2226 419.346,135.67552 628.4,204.60209 46.475,-59.21302 89.668,-121.18268 134.457,-181.76364 86.176,-119.22095 173.822,-237.41521 258.164,-357.941386 0.734,-2.00345 4.636,-5.02828 1.709,-6.93801 z"
         id="path31372-9"
         inkscape:label="8" />
      <path
         style="fill:#0d0887;fill-opacity:1;stroke:#000000;stroke-width:9;stroke-linecap:square;stroke-linejoin:bevel;stroke-miterlimit:110;stroke-dasharray:none;stroke-opacity:0.99"
         d="m 4178.8909,358.80326 c -187.374,256.98519 -374.365,514.49143 -560.7734,772.27004 -26.9446,37.6849 -54.5582,74.9432 -80.7968,113.1033 4.7107,4.5732 14.8891,-3.9278 21.5478,-4.4652 206.8764,-67.6393 414.0384,-134.4145 621.1154,-201.4465 2.026,-30.3522 0.294,-62.17044 0.855,-93.08668 -0.379,-194.98152 -0.581,-389.96336 0.02,-584.94441 l -0.617,-1.22099 z"
         id="path31370-1"
         inkscape:label="7" />
      <path
         style="fill:#0d0887;fill-opacity:1;stroke:#000000;stroke-width:9;stroke-linecap:square;stroke-linejoin:bevel;stroke-miterlimit:110;stroke-dasharray:none;stroke-opacity:0.99"
         d="m 3533.5356,1262.4439 c -5.7081,0.059 -1.5729,10.4713 -2.8685,14.4303 -0.5667,358.0142 0.1135,716.0288 0.2483,1074.0438 7.8811,-0.059 13.5914,-17.1145 20.5549,-23.6077 122.8296,-169.3969 247.2776,-337.6365 368.6486,-508.0807 2.737,-6.0304 13.767,-13.648 5.139,-19.6117 -130.188,-176.1588 -257.894,-354.2278 -386.966,-531.2357 -1.534,-1.9836 -2.5942,-4.5158 -4.7563,-5.9383 z"
         id="path31368-5"
         inkscape:label="6" />
      <path
         style="fill:#0d0887;fill-opacity:1;stroke:#000000;stroke-width:9;stroke-linecap:square;stroke-linejoin:bevel;stroke-miterlimit:110;stroke-dasharray:none;stroke-opacity:0.99"
         d="m 4180.0009,2576.1959 c -81.46,-28.7754 -164.343,-53.6142 -246.409,-80.7018 -131.476,-42.3299 -262.669,-85.5951 -394.0668,-128.1847 -2.365,7.5101 12.1031,18.1995 16.1391,26.8214 206.4877,283.8022 412.2517,568.1506 619.4637,851.4135 7.354,5.0656 4.258,-9.663 4.922,-13.1448 0.668,-218.4167 0.405,-436.8818 0.817,-655.263 -0.173,-0.4033 -0.502,-0.712 -0.866,-0.9406 z"
         id="path31366-0"
         inkscape:label="5" />
      <path
         style="fill:#0d0887;fill-opacity:1;stroke:#000000;stroke-width:9;stroke-linecap:square;stroke-linejoin:bevel;stroke-miterlimit:110;stroke-dasharray:none;stroke-opacity:0.99"
         d="m 4833.1999,3053.0908 c -7.879,-1.9397 -16.092,5.0244 -24.032,6.0559 -203.586,66.3158 -407.277,132.503 -610.714,199.1659 -5.523,5.409 8.561,5.8936 11.234,7.8783 338.088,110.3181 676.189,220.6966 1014.58,330.0294 4.443,-4.1714 -5.039,-10.6956 -6.432,-15.2249 -84.236,-118.5916 -171.011,-235.3627 -255.694,-353.6387 -42.219,-57.2482 -82.171,-116.2606 -126.376,-171.9899 -0.797,-0.8148 -1.612,-1.6408 -2.566,-2.276 z"
         id="path31384-0"
         inkscape:label="4" />
      <path
         style="fill:#0d0887;fill-opacity:1;stroke:#000000;stroke-width:9;stroke-linecap:square;stroke-linejoin:bevel;stroke-miterlimit:110;stroke-dasharray:none;stroke-opacity:0.99"
         d="m 6281.6179,3259.3034 c -211.775,-69.8846 -423.912,-138.6785 -636.04,-207.4882 -20.423,23.9304 -38.086,51.6688 -57.446,77.0654 -111.393,153.2683 -223.677,305.9157 -334.176,459.8179 -3.597,3.2032 -3.081,11.4024 3.44,6.9389 341.966,-110.4414 683.795,-221.3489 1025.336,-333.1063 2.028,-0.8989 0.502,-3.2491 -1.115,-3.2288 z"
         id="path31382-5"
         inkscape:label="3" />
      <path
         style="fill:#0d0887;fill-opacity:1;stroke:#000000;stroke-width:9;stroke-linecap:square;stroke-linejoin:bevel;stroke-miterlimit:110;stroke-dasharray:none;stroke-opacity:0.99"
         d="m 6939.3439,2366.8407 c -212.429,70.3253 -425.871,137.5808 -638.146,208.3472 -6.073,4.3287 -1.864,14.9113 -3.637,21.4704 -1.521,153.1565 0.05,306.3435 -0.422,459.5105 0.429,65.3727 -0.98,131.1259 0.304,196.2484 9.654,-7.2236 16.009,-21.1734 24.41,-30.9342 207.09,-283.6056 413.425,-567.7607 619.175,-852.3403 0.942,-1.1231 -0.462,-2.7998 -1.687,-2.3043 z"
         id="path31380-9"
         inkscape:label="2" />
      <path
         style="fill:#0d0887;fill-opacity:1;stroke:#000000;stroke-width:9;stroke-linecap:square;stroke-linejoin:bevel;stroke-miterlimit:110;stroke-dasharray:none;stroke-opacity:0.99"
         d="m 6944.3309,1263.1835 c -68.784,91.167 -135.193,184.4135 -202.704,276.6393 -64.318,88.526 -128.636,177.0519 -192.954,265.5778 16.609,27.0678 37.676,52.6888 56.039,79.1707 112.76,155.4727 225.79,310.8637 338.002,466.6494 6.7,2.5886 2.449,-10.2528 3.719,-13.3869 0.31,-357.7464 0.441,-715.5026 -0.111,-1073.2495 l -0.637,-1.2078 z"
         id="path31378-4"
         inkscape:label="1" />
      <path
         style="fill:#0d0887;fill-opacity:1;stroke:#000000;stroke-width:9;stroke-linecap:square;stroke-linejoin:bevel;stroke-miterlimit:110;stroke-dasharray:none;stroke-opacity:0.99"
         d="m 6299.1059,364.48377 c -3.98,7.65123 -0.487,19.1284 -1.773,28.08071 0.501,205.97666 -1.063,411.95066 -0.05,617.92582 1.765,9.1145 -2.321,21.7833 4.615,28.9831 206.063,66.9671 412.37,133.168 618.341,200.3851 5.121,0.126 13.769,6.8065 17.323,1.7822 -138.654,-192.76 -279.1,-384.47485 -418.624,-576.70034 -72.855,-99.96369 -145.444,-200.12313 -218.607,-299.85994 z"
         id="path31376-3"
         inkscape:label="0" />
      <path
         style="fill:#e4695e;fill-opacity:1;stroke:#000000;stroke-width:9;stroke-linecap:square;stroke-linejoin:bevel;stroke-miterlimit:110;stroke-dasharray:none;stroke-opacity:0.99"
         d="m 6287.1489,357.2173 c -212.251,68.56048 -424.287,137.83726 -636.047,207.90899 -2.302,6.83998 8.058,13.52567 10.383,19.95954 74.868,106.97029 152.313,212.12432 229.149,317.6856 7.29,-0.85897 10.004,-12.59156 15.578,-17.20988 128.691,-174.55075 256.057,-350.09026 382.665,-526.15197 0.804,-1.14138 -0.586,-2.62393 -1.728,-2.19228 z"
         id="path31336-4"
         inkscape:label="9" />
      <path
         style="fill:#e4695e;fill-opacity:1;stroke:#000000;stroke-width:9;stroke-linecap:square;stroke-linejoin:bevel;stroke-miterlimit:110;stroke-dasharray:none;stroke-opacity:0.99"
         d="m 5235.5289,21.471424 c -13.692,11.11467 -22.5,28.32265 -33.971,41.92661 -121.109,165.488716 -242.273,330.975826 -360.848,498.288146 4.488,7.3139 18.8,6.9743 26.897,11.36161 121.16,39.20091 241.659,80.61345 363.82,116.59347 9.825,3.29715 3.624,-12.70923 5.475,-17.53817 0.572,-216.4954 1.224,-433.03297 0.09,-649.503886 -0.214,-0.63262 -0.792,-1.07877 -1.459,-1.12778 z"
         id="path31334-4"
         inkscape:label="8" />
      <path
         style="fill:#e4695e;fill-opacity:1;stroke:#000000;stroke-width:9;stroke-linecap:square;stroke-linejoin:bevel;stroke-miterlimit:110;stroke-dasharray:none;stroke-opacity:0.99"
         d="m 4186.3709,362.17303 c -3.638,15.84005 -0.414,34.84885 -1.618,51.77724 0.08,206.54819 -1.351,413.15732 1.323,619.66583 11.551,0.8575 23.945,-7.4209 35.721,-9.5866 119.664,-38.55956 239.447,-76.81736 358.642,-116.7759 -0.303,-8.94323 -11.232,-16.05828 -15.049,-24.35656 -125.423,-173.75522 -250.85,-347.53443 -377.73,-520.22754 z"
         id="path31332-4"
         inkscape:label="7" />
      <path
         style="fill:#e4695e;fill-opacity:1;stroke:#000000;stroke-width:9;stroke-linecap:square;stroke-linejoin:bevel;stroke-miterlimit:110;stroke-dasharray:none;stroke-opacity:0.99"
         d="m 4173.4309,1462.0982 c -212.06,-69.2827 -424.319,-137.9719 -636.4768,-206.9583 -2.4243,7.59 12.4708,18.4171 16.445,27.1568 125.6598,172.4785 250.0368,346.0308 376.6388,517.7373 9.557,-4.2303 14.173,-17.0462 21.567,-24.4316 73.557,-99.9642 147.29,-199.8567 218.504,-301.5018 1.221,-3.236 7.553,-8.8705 3.322,-12.0024 z"
         id="path31330-4"
         inkscape:label="6" />
      <path
         style="fill:#e4695e;fill-opacity:1;stroke:#000000;stroke-width:9;stroke-linecap:square;stroke-linejoin:bevel;stroke-miterlimit:110;stroke-dasharray:none;stroke-opacity:0.99"
         d="m 4178.0039,2154.9924 c -210.355,66.304 -420.184,134.3823 -629.7226,203.2407 -6.1019,0.074 -7.5721,7.6286 -0.331,7.5041 209.3326,68.7125 418.8486,136.927 628.7366,203.8959 5.344,-5.0846 0.919,-16.2662 2.647,-23.4061 1.191,-130.0062 2.626,-260.0893 0.417,-390.0642 z"
         id="path31328-3"
         inkscape:label="5" />
      <path
         style="fill:#e4695e;fill-opacity:1;stroke:#000000;stroke-width:9;stroke-linecap:square;stroke-linejoin:bevel;stroke-miterlimit:110;stroke-dasharray:none;stroke-opacity:0.99"
         d="m 4584.4239,2710.7703 c -133.099,179.9545 -263.652,361.8034 -395.471,542.7048 5.441,4.7833 19.023,-4.8378 27.412,-5.6854 204.286,-66.0479 408.576,-132.2385 611.956,-200.9938 -0.671,-9.22 -10.797,-16.8533 -15.288,-25.1784 -75.447,-103.5682 -150.51,-207.4211 -226.315,-310.7251 l -2.166,-0.1151 z"
         id="path31326-5"
         inkscape:label="4" />
      <path
         style="fill:#e4695e;fill-opacity:1;stroke:#000000;stroke-width:9;stroke-linecap:square;stroke-linejoin:bevel;stroke-miterlimit:110;stroke-dasharray:none;stroke-opacity:0.99"
         d="m 5619.7049,3043.2171 c -125.179,-40.449 -250.081,-81.7881 -375.444,-121.6392 -5.295,6.9656 -0.478,19.2566 -2.33,27.9568 -1.091,214.8625 -1.01,429.7304 -0.602,644.5921 7.252,0.9238 12.187,-15.1159 18.444,-20.4428 126.903,-173.7743 253.171,-348.0112 379.704,-522.055 -2.391,-5.7051 -14.529,-5.2656 -19.772,-8.4119 z"
         id="path31344-77"
         inkscape:label="3" />
      <path
         style="fill:#e4695e;fill-opacity:1;stroke:#000000;stroke-width:9;stroke-linecap:square;stroke-linejoin:bevel;stroke-miterlimit:110;stroke-dasharray:none;stroke-opacity:0.99"
         d="m 6290.7209,2579.7017 c -127.177,38.5989 -253.487,80.3816 -379.722,122.0417 -4.371,2.5025 -18.294,2.6329 -11.065,10.1263 128.778,177.9562 257.366,356.0963 387.518,533.0407 8.252,5.1965 4.564,-10.5102 5.352,-14.5481 0.536,-216.4293 0.78,-432.8814 -0.651,-649.3006 l -1.339,-1.3501 z"
         id="path31342-7"
         inkscape:label="2" />
      <path
         style="fill:#e4695e;fill-opacity:1;stroke:#000000;stroke-width:9;stroke-linecap:square;stroke-linejoin:bevel;stroke-miterlimit:110;stroke-dasharray:none;stroke-opacity:0.99"
         d="m 6543.3369,1809.8497 c -79.657,110.7679 -161.613,219.9259 -239.362,332.0413 -4.629,4.4826 -3.952,10.7126 4.138,10.1971 209.504,67.2825 418.214,137.1385 628.44,202.0923 3.675,-6.321 -9.206,-13.9171 -11.292,-20.5466 -125.833,-175.0368 -253.624,-348.6897 -379.454,-523.7231 l -2.169,-0.053 z"
         id="path31340-2"
         inkscape:label="1" />
      <path
         style="fill:#e4695e;fill-opacity:1;stroke:#000000;stroke-width:9;stroke-linecap:square;stroke-linejoin:bevel;stroke-miterlimit:110;stroke-dasharray:none;stroke-opacity:0.99"
         d="m 6935.1669,1249.5181 c -185.574,-62.467 -372.355,-121.3768 -558.876,-180.9839 -25.744,-7.8674 -51.272,-16.7282 -77.269,-23.6125 -3.756,17.2013 -0.633,37.0446 -1.799,55.1954 0.339,115.063 -1.726,230.1794 1.293,345.2054 -0.475,6.0071 1.665,17.0585 10.055,11.2677 209.174,-67.2286 418.183,-135.0285 626.704,-204.2447 1.366,-0.5221 0.99,-2.3923 -0.108,-2.8274 z"
         id="path31338-4"
         inkscape:label="0" />
      <path
         style="fill:#e97158;fill-opacity:1;stroke:#000000;stroke-width:9;stroke-linecap:square;stroke-linejoin:bevel;stroke-miterlimit:110;stroke-dasharray:none;stroke-opacity:0.99"
         d="m 5243.6359,20.836394 c -4.303,7.98229 -0.537,20.05182 -1.935,29.38741 0.299,211.583346 -0.547,423.181616 -0.156,634.766746 0,15.93622 21.673,-2.27094 31.038,-2.00465 119.122,-39.46881 239.273,-75.95834 357.406,-118.3068 6.071,-0.83102 8.809,-5.72776 3.056,-9.8903 -128.966,-178.09296 -258.199,-356.00505 -388.16,-533.374236 z"
         id="path31356-2"
         inkscape:label="9" />
      <path
         style="fill:#e97158;fill-opacity:1;stroke:#000000;stroke-width:9;stroke-linecap:square;stroke-linejoin:bevel;stroke-miterlimit:110;stroke-dasharray:none;stroke-opacity:0.99"
         d="m 4826.6639,564.11679 c -210.622,-68.63437 -421.167,-137.80897 -632.122,-205.23962 -7.671,2.95734 6.209,11.52865 6.983,15.81874 127.577,174.05034 253.817,349.32772 380.857,523.60604 9.366,-0.0919 13.515,-12.8413 19.782,-18.3126 76.941,-103.50353 152.627,-207.99296 227.252,-313.16631 -0.986,-0.82833 -0.29,-3.45951 -2.752,-2.70625 z"
         id="path31354-9"
         inkscape:label="8" />
      <path
         style="fill:#e97158;fill-opacity:1;stroke:#000000;stroke-width:9;stroke-linecap:square;stroke-linejoin:bevel;stroke-miterlimit:110;stroke-dasharray:none;stroke-opacity:0.99"
         d="m 4177.7989,1044.7784 c -206.853,64.626 -412.984,131.7143 -618.978,199.057 -3.5557,2.7764 -17.5414,2.4809 -14.5232,8.1881 127.3202,44.017 256.1212,83.7327 384.0242,126.0554 83.199,27.0068 166.323,54.2573 249.627,80.9344 5.312,-5.3055 0.713,-16.158 2.379,-23.3896 0.368,-129.8572 0.914,-259.7507 -0.844,-389.5898 l -1.55,-1.2617 z"
         id="path31352-9"
         inkscape:label="7" />
      <path
         style="fill:#e97158;fill-opacity:1;stroke:#000000;stroke-width:9;stroke-linecap:square;stroke-linejoin:bevel;stroke-miterlimit:110;stroke-dasharray:none;stroke-opacity:0.99"
         d="m 3932.0029,1812.6945 c -114.053,151.9938 -224.43,306.8209 -336.5435,460.2866 -19.6747,27.8097 -40.9809,54.9508 -59.645,83.1746 16.4986,-1.6768 34.2332,-10.654 51.1899,-15.1033 196.3626,-64.5594 393.4526,-126.9424 589.5826,-192.1684 -2.446,-11.221 -14.519,-20.4815 -20.218,-31.0056 -73.928,-101.7566 -147.79,-203.5716 -222.355,-304.8596 z"
         id="path31350-3"
         inkscape:label="6" />
      <path
         style="fill:#e97158;fill-opacity:1;stroke:#000000;stroke-width:9;stroke-linecap:square;stroke-linejoin:bevel;stroke-miterlimit:110;stroke-dasharray:none;stroke-opacity:0.99"
         d="m 4578.9849,2705.9545 c -127.359,-43.5424 -255.723,-84.2639 -384.216,-124.3628 -8.23,-5.4909 -11.579,0.7484 -9.773,8.7133 -0.765,218.8705 -0.355,437.7412 -0.475,656.6144 8.77,-1.1085 15.302,-19.5834 23.154,-27.1588 124.009,-170.5298 248.956,-340.39 371.965,-511.6388 0.495,-0.9521 0.03,-1.7744 -0.655,-2.1673 z"
         id="path31348-7"
         inkscape:label="5" />
      <path
         style="fill:#e97158;fill-opacity:1;stroke:#000000;stroke-width:9;stroke-linecap:square;stroke-linejoin:bevel;stroke-miterlimit:110;stroke-dasharray:none;stroke-opacity:0.99"
         d="m 5234.0129,2922.2123 c -130.85,41.1252 -261.359,83.4585 -391.465,126.8769 -1.142,7.7206 9.393,14.6078 12.304,21.8263 124.62,175.7194 251.803,349.6685 378.826,523.6224 6.802,-1.1184 1.868,-13.1693 3.415,-18.0179 -0.615,-212.0632 0.824,-424.1287 -0.408,-636.1905 -1.44,-5.334 2.131,-14.6893 -2.672,-18.1172 z"
         id="path31346-0"
         inkscape:label="4" />
      <path
         style="display:inline;fill:#e97158;fill-opacity:1;stroke:#000000;stroke-width:9;stroke-linecap:square;stroke-linejoin:bevel;stroke-miterlimit:110;stroke-dasharray:none;stroke-opacity:0.99"
         d="m 5890.3039,2708.788 c -81.187,112.3699 -163.047,224.2617 -243.533,337.1332 9.148,7.7549 24.901,8.7481 36.553,13.9262 200.683,65.3056 401.327,130.7845 602.096,195.7936 4.018,-5.0558 -6.754,-12.0468 -8.53,-17.4346 -127.878,-176.5939 -256.671,-352.5349 -384.156,-529.4178 l -2.169,-3e-4 z"
         id="path31364-0"
         inkscape:label="3" />
      <path
         style="fill:#e97158;fill-opacity:1;stroke:#000000;stroke-width:9;stroke-linecap:square;stroke-linejoin:bevel;stroke-miterlimit:110;stroke-dasharray:none;stroke-opacity:0.99"
         d="m 6937.3159,2360.3225 c -203.442,-66.3417 -407.181,-131.8585 -610.84,-197.5663 -8.426,-1.0822 -18.278,-8.8536 -26.099,-6.246 -4.919,38.1237 -2.126,77.0872 -3.246,115.5178 0.246,98.9272 -1.235,198.0233 1.742,296.85 17.375,-1.8539 34.967,-10.8462 52.38,-15.2339 195.502,-63.0788 391.108,-125.9057 586.09,-190.5633 1.282,-0.4413 1.078,-2.3698 -0.03,-2.7583 z"
         id="path31362-6"
         inkscape:label="2" />
      <path
         style="fill:#e97158;fill-opacity:1;stroke:#000000;stroke-width:9;stroke-linecap:square;stroke-linejoin:bevel;stroke-miterlimit:110;stroke-dasharray:none;stroke-opacity:0.99"
         d="m 6940.0899,1256.9487 c -31.058,7.2623 -61.54,19.6612 -92.333,28.9037 -179.775,59.3643 -360.157,116.8582 -539.926,176.2069 -3.552,0.4959 -10.651,4.5745 -4.957,7.7514 80.093,110.4375 159.329,221.7556 240.899,330.9775 11.063,-7.4324 17.472,-21.7215 26.516,-31.7542 124.546,-169.2093 247.998,-339.2455 370.436,-509.98 l -0.471,-1.997 z"
         id="path31360-62"
         inkscape:label="1" />
      <path
         style="fill:#e97158;fill-opacity:1;stroke:#000000;stroke-width:9;stroke-linecap:square;stroke-linejoin:bevel;stroke-miterlimit:110;stroke-dasharray:none;stroke-opacity:0.99"
         d="m 6290.9939,364.16312 c -131.628,180.14497 -262.453,361.08166 -393.767,541.53447 8.349,7.68106 23.521,8.59834 34.481,13.59605 119.06,38.77257 238.096,77.63344 357.495,115.33646 5.512,-5.1123 0.459,-16.4367 2.443,-23.5072 1.655,-215.1819 2.205,-430.3743 1.357,-645.55799 l -0.643,-1.22064 z"
         id="path31358-5"
         inkscape:label="0" />
      <path
         style="fill:#ed7953;fill-opacity:1;stroke:#000000;stroke-width:9;stroke-linecap:square;stroke-linejoin:bevel;stroke-miterlimit:110;stroke-dasharray:none;stroke-opacity:0.99"
         d="m 5640.6209,567.04116 c -129.926,42.37097 -260.161,84.11386 -389.771,127.2782 -3.93,5.47702 8.372,5.09689 11.329,7.30113 207.196,67.61527 414.406,135.19147 621.773,202.27807 2.861,-6.65111 -10.726,-16.43545 -14.225,-24.1921 -75.83,-104.0889 -151.061,-208.62683 -227.535,-312.23815 z"
         id="path31314-86"
         inkscape:label="9" />
      <path
         style="fill:#ed7953;fill-opacity:1;stroke:#000000;stroke-width:9;stroke-linecap:square;stroke-linejoin:bevel;stroke-miterlimit:110;stroke-dasharray:none;stroke-opacity:0.99"
         d="m 5227.3189,694.35461 c -130.098,-43.29168 -260.52,-85.64048 -391.089,-127.49958 -13.113,13.9024 -23.401,31.67853 -35.448,47.04332 -69.346,95.78517 -139.42,191.061 -207.952,287.42469 4.43,4.81557 15.559,-4.02197 22.395,-4.41978 204.181,-66.20947 408.346,-132.50147 612.205,-199.69705 1.403,-0.45686 1.121,-2.51398 -0.111,-2.8516 z"
         id="path31312-1"
         inkscape:label="8" />
      <path
         style="fill:#ed7953;fill-opacity:1;stroke:#000000;stroke-width:9;stroke-linecap:square;stroke-linejoin:bevel;stroke-miterlimit:110;stroke-dasharray:none;stroke-opacity:0.99"
         d="m 4576.6559,912.80012 c -125.275,41.19631 -251.183,80.52385 -375.969,123.16588 -6.565,3.0305 -19.072,4.7012 -16.289,14.944 -0.532,134.0075 -0.149,268.0224 -0.177,402.0344 7.202,0.6814 12.355,-15.2468 18.663,-20.9561 125.777,-171.8385 250.864,-344.18 375.451,-516.88245 0.946,-1.11833 -0.451,-2.80031 -1.679,-2.30573 z"
         id="path31310-4"
         inkscape:label="7" />
      <path
         style="fill:#ed7953;fill-opacity:1;stroke:#000000;stroke-width:9;stroke-linecap:square;stroke-linejoin:bevel;stroke-miterlimit:110;stroke-dasharray:none;stroke-opacity:0.99"
         d="m 4179.0429,1471.5861 c -77.272,105.1851 -154.574,210.6049 -230.635,316.764 -3.525,6.9007 -11.427,13.0053 -12.126,20.7679 80.169,110.5754 159.918,221.5282 240.751,331.5793 6.843,1.1353 2.436,-10.2797 3.727,-14.1011 0.483,-217.8553 0.185,-435.7205 0.235,-653.5797 l -0.614,-1.2095 z"
         id="path31308-7"
         inkscape:label="6" />
      <path
         style="fill:#ed7953;fill-opacity:1;stroke:#000000;stroke-width:9;stroke-linecap:square;stroke-linejoin:bevel;stroke-miterlimit:110;stroke-dasharray:none;stroke-opacity:0.99"
         d="m 4186.2149,2161.2643 c -3.75,6.6159 -0.501,16.6673 -1.712,24.4571 -0.197,125.8904 -1.47,251.8117 1.158,377.6797 -0.284,5.9003 0.08,12.8588 7.907,12.7337 127.033,41.5658 254.141,82.9487 381.548,123.3473 4.506,-4.1028 -6.505,-10.8728 -7.905,-15.7823 -126.028,-174.3733 -252.197,-348.6679 -379.737,-521.933 z"
         id="path31306-8"
         inkscape:label="5" />
      <path
         style="fill:#ed7953;fill-opacity:1;stroke:#000000;stroke-width:9;stroke-linecap:square;stroke-linejoin:bevel;stroke-miterlimit:110;stroke-dasharray:none;stroke-opacity:0.99"
         d="m 5228.3229,2916.1351 c -210.148,-69.3066 -420.68,-137.5072 -631.393,-205.0852 -8.519,-0.9153 2.068,8.7907 3.681,12.1678 77.324,107.3603 154.32,215.018 233.761,320.8104 12.614,-0.3567 25.175,-6.847 37.631,-9.7494 119.14,-37.3462 237.83,-76.1521 356.357,-115.3868 1.275,-0.448 1.069,-2.3647 -0.04,-2.7568 z"
         id="path31324-0"
         inkscape:label="4" />
      <path
         style="display:inline;fill:#ed7953;fill-opacity:1;stroke:#000000;stroke-width:9;stroke-linecap:square;stroke-linejoin:bevel;stroke-miterlimit:110;stroke-dasharray:none;stroke-opacity:0.99"
         d="m 5881.9709,2710.7128 c -206.719,66.1657 -413.046,133.8748 -619.396,201.3034 -2.874,1.9076 -15.699,2.3234 -10.561,7.3626 98.225,33.6736 197.431,64.558 296.055,97.0924 30.999,10.0829 61.998,20.1664 92.998,30.25 12.797,-13.4233 22.746,-30.767 34.469,-45.6691 69.188,-95.9629 139.99,-190.8095 207.482,-287.9665 0.668,-1.0379 -0.233,-1.6556 -1.047,-2.3728 z"
         id="path31322-2"
         inkscape:label="3" />
      <path
         style="fill:#ed7953;fill-opacity:1;stroke:#000000;stroke-width:9;stroke-linecap:square;stroke-linejoin:bevel;stroke-miterlimit:110;stroke-dasharray:none;stroke-opacity:0.99"
         d="m 6292.1359,2161.3 c -8.261,4.6496 -12.6,15.356 -19.153,22.3203 -121.313,164.8823 -241.496,330.6042 -360.82,496.932 -3.272,6.6047 -11.293,12.2805 -11.962,19.5156 22.426,-4.7041 44.576,-14.039 66.861,-20.5198 108.239,-35.3868 216.629,-70.3427 324.512,-106.7853 2.661,-15.1424 0.575,-31.6831 1.429,-47.3196 0.363,-121.0637 1.373,-242.1848 0.174,-363.2158 l -0.951,-0.8991 z"
         id="path31320-7"
         inkscape:label="2" />
      <path
         style="fill:#ed7953;fill-opacity:1;stroke:#000000;stroke-width:9;stroke-linecap:square;stroke-linejoin:bevel;stroke-miterlimit:110;stroke-dasharray:none;stroke-opacity:0.99"
         d="m 6298.8829,1473.1848 c -3.533,7.9068 -0.446,18.8601 -1.641,27.7862 -0.93,213.0585 -0.444,426.1195 -0.57,639.1798 7.205,0.6865 12.348,-15.2518 18.654,-20.9626 75.477,-104.1653 152.536,-207.2597 226.402,-312.5477 -15.312,-24.7381 -34.133,-47.9037 -50.842,-71.9757 -63.404,-87.1366 -126.302,-174.6683 -190.717,-261.0473 z"
         id="path31318-5"
         inkscape:label="1" />
      <path
         style="fill:#ed7953;fill-opacity:1;stroke:#000000;stroke-width:9;stroke-linecap:square;stroke-linejoin:bevel;stroke-miterlimit:110;stroke-dasharray:none;stroke-opacity:0.99"
         d="m 6291.5729,1039.8388 c -129.366,-42.19358 -258.475,-85.28325 -388.574,-125.16264 -7.27,1.87223 6.498,11.5942 7.526,15.9099 126.399,174.08804 252.445,348.44734 379.322,522.17894 5.516,1.009 2.322,-8.6344 3.354,-11.9394 0.589,-133.0652 0.197,-266.1371 0.376,-399.205 -0.855,-0.35 -0.661,-2.0659 -2.004,-1.7818 z"
         id="path31316-1"
         inkscape:label="0" />
      <path
         style="fill:#f79342;fill-opacity:1;stroke:#000000;stroke-width:9;stroke-linecap:square;stroke-linejoin:bevel;stroke-miterlimit:110;stroke-dasharray:none;stroke-opacity:0.99"
         d="m 5883.3469,912.73518 c -128.015,41.80982 -256.397,82.71182 -384.139,125.22522 -4.841,4.7142 6.329,5.364 8.652,6.8271 76.027,24.9423 152.06,49.8611 228.298,74.1489 9.131,-7.8908 14.987,-20.1701 22.936,-29.6004 42.107,-58.0059 83.971,-116.18703 125.934,-174.2972 0.935,-1.11441 -0.45,-2.80282 -1.681,-2.30362 z"
         id="path31258-6"
         inkscape:label="9" />
      <path
         style="fill:#f79342;fill-opacity:1;stroke:#000000;stroke-width:9;stroke-linecap:square;stroke-linejoin:bevel;stroke-miterlimit:110;stroke-dasharray:none;stroke-opacity:0.99"
         d="m 5235.8779,701.83657 c -77.348,105.64432 -154.61,211.61996 -230.611,318.33763 -1.428,4.6249 -9.878,9.3464 -7.168,14.2075 74.001,-23.1752 147.994,-47.05286 221.461,-72.07509 5.664,-3.10166 14.644,-3.37227 17.991,-9.4149 0.417,-83.20264 0.187,-166.41273 0.266,-249.61984 l -0.61,-1.20633 z"
         id="path31256-4"
         inkscape:label="8" />
      <path
         style="display:inline;fill:#f79342;fill-opacity:1;stroke:#000000;stroke-width:9;stroke-linecap:square;stroke-linejoin:bevel;stroke-miterlimit:110;stroke-dasharray:none;stroke-opacity:0.99"
         d="m 4589.3359,916.79515 c -3.384,7.23561 -0.455,17.22261 -1.58,25.37739 -0.599,126.73646 -0.757,253.48736 0.05,380.22156 4.9,3.2303 7.724,-8.1263 11.55,-10.9277 46.683,-63.2592 92.643,-127.0471 138.919,-190.6032 -7.544,-14.5647 -19.679,-27.6363 -28.958,-41.6371 -39.517,-54.0554 -78.286,-108.68817 -118.679,-162.08223 z"
         id="path31274-0"
         inkscape:label="7" />
      <path
         style="fill:#f79342;fill-opacity:1;stroke:#000000;stroke-width:9;stroke-linecap:square;stroke-linejoin:bevel;stroke-miterlimit:110;stroke-dasharray:none;stroke-opacity:0.99"
         d="m 4426.7019,1544.0583 c -78.754,-25.8567 -157.577,-51.515 -236.52,-76.7802 -3.943,4.6624 6.981,12.098 9.342,17.7683 75.302,104.0857 150.282,208.4837 226.617,311.7679 6.019,3.3583 3.908,-7.3208 4.33,-10.5204 0.21,-80.2565 0.384,-160.5683 -1.89,-240.7819 -0.174,-0.8384 -1.127,-1.2884 -1.88,-1.4534 z"
         id="path31272-5"
         inkscape:label="6" />
      <path
         style="fill:#f79342;fill-opacity:1;stroke:#000000;stroke-width:9;stroke-linecap:square;stroke-linejoin:bevel;stroke-miterlimit:110;stroke-dasharray:none;stroke-opacity:0.99"
         d="m 4433.1009,2072.7302 c -21.508,3.4153 -42.225,12.0612 -63.253,17.9877 -59.213,19.1983 -118.723,37.7605 -177.519,58.0837 -2.754,5.3015 7.902,4.9681 10.738,7.0808 124.733,40.823 249.579,81.3836 374.891,120.3893 4.651,-3.1034 -4.41,-8.8088 -5.609,-12.7397 -46.09,-63.8111 -91.721,-128.1293 -139.248,-190.8018 z"
         id="path31270-8"
         inkscape:label="5" />
      <path
         style="fill:#f79342;fill-opacity:1;stroke:#000000;stroke-width:9;stroke-linecap:square;stroke-linejoin:bevel;stroke-miterlimit:110;stroke-dasharray:none;stroke-opacity:0.99"
         d="m 4981.2369,2572.4143 c -79.134,-26.831 -158.808,-52.0449 -238.217,-78.0586 -11.551,11.6429 -20.281,27.1938 -30.767,40.3129 -39.25,54.5355 -80.333,107.8406 -117.865,163.565 1.468,5.987 11.515,-2.2596 15.908,-1.965 123.797,-39.9783 247.604,-79.9665 371.027,-121.0669 1.305,-0.4791 1.049,-2.4045 -0.09,-2.7874 z"
         id="path31268-9"
         inkscape:label="4" />
      <path
         style="fill:#f79342;fill-opacity:1;stroke:#000000;stroke-width:9;stroke-linecap:square;stroke-linejoin:bevel;stroke-miterlimit:110;stroke-dasharray:none;stroke-opacity:0.99"
         d="m 5479.0469,2578.0558 c -78.807,25.9156 -158.099,50.4779 -236.438,77.7461 -2.624,14.9347 -0.635,31.1359 -1.473,46.5058 -0.402,67.862 -0.201,135.7274 -0.281,203.5913 6.87,1.0446 11.756,-14.304 17.745,-19.629 74.634,-101.5394 148.587,-203.5771 222.128,-305.9105 0.945,-1.1194 -0.452,-2.7935 -1.681,-2.3037 z"
         id="path31266-2"
         inkscape:label="3" />
      <path
         style="fill:#f79342;fill-opacity:1;stroke:#000000;stroke-width:9;stroke-linecap:square;stroke-linejoin:bevel;stroke-miterlimit:110;stroke-dasharray:none;stroke-opacity:0.99"
         d="m 5887.9529,2291.7041 c -47.801,61.3947 -92.286,125.423 -138.435,188.103 -6.817,7.2784 -12.587,15.6004 -2.36,23.0034 46.588,64.0129 92.592,128.5255 139.659,192.1409 6.412,0.2792 1.986,-10.3471 3.36,-14.1384 0.205,-129.2727 0.356,-258.5541 0.1,-387.8298 0.01,-1.6626 -1.303,-1.2449 -2.32,-1.2791 z"
         id="path31264-3"
         inkscape:label="2" />
      <path
         style="fill:#f79342;fill-opacity:1;stroke:#000000;stroke-width:9;stroke-linecap:square;stroke-linejoin:bevel;stroke-miterlimit:110;stroke-dasharray:none;stroke-opacity:0.99"
         d="m 6048.8719,1815.7505 c -3.973,5.2677 -0.336,14.3915 -1.73,20.8876 0.05,76.7268 -1.289,153.5448 1.619,230.2187 14.518,7.0062 31.751,10.6227 47.305,16.3367 63.232,20.4438 126.314,41.359 189.71,61.2859 4,-4.3894 -6.754,-11.4209 -8.636,-16.6706 -75.437,-104.0156 -150.851,-208.0566 -227.021,-311.536 z"
         id="path31262-2"
         inkscape:label="1" />
      <path
         style="fill:#f79342;fill-opacity:1;stroke:#000000;stroke-width:9;stroke-linecap:square;stroke-linejoin:bevel;stroke-miterlimit:110;stroke-dasharray:none;stroke-opacity:0.99"
         d="m 6283.7519,1462.0404 c -127.485,-42.2803 -255.292,-83.6945 -383.352,-124.2038 -4.473,3.3428 4.591,9.0221 5.912,13.111 46.052,63.9154 91.622,128.2607 139.632,190.7111 19.347,-3.9262 38.578,-12.1139 57.844,-17.7063 60.042,-19.6263 120.205,-38.9107 180.015,-59.215 1.186,-0.486 0.976,-2.2778 -0.05,-2.697 z"
         id="path31260-6"
         inkscape:label="0" />
      <path
         style="fill:#fa9b3d;fill-opacity:1;stroke:#000000;stroke-width:9;stroke-linecap:square;stroke-linejoin:bevel;stroke-miterlimit:110;stroke-dasharray:none;stroke-opacity:0.99"
         d="m 5880.9969,906.70539 c -209.861,-69.06065 -419.934,-137.56549 -630.176,-205.42282 -5.709,1.89617 1.815,8.76114 3.081,11.86511 64.732,91.87815 131.628,182.22807 197.593,273.22596 13.018,16.49116 23.91,35.06936 38.985,49.74116 8.089,0.7805 16.039,-5.3371 24.06,-6.6704 122.188,-40.01063 244.756,-78.91849 366.584,-119.99741 1.23,-0.49922 0.974,-2.37415 -0.127,-2.7416 z"
         id="path31294-8"
         inkscape:label="9" />
      <path
         style="fill:#fa9b3d;fill-opacity:1;stroke:#000000;stroke-width:9;stroke-linecap:square;stroke-linejoin:bevel;stroke-miterlimit:110;stroke-dasharray:none;stroke-opacity:0.99"
         d="m 5228.4319,701.58839 c -28.373,7.69905 -56.464,18.14341 -84.73,26.85962 -182.531,59.38331 -365.237,118.45849 -547.635,178.10461 -3.513,5.1144 7.671,4.74205 10.102,6.75825 127.135,41.74781 254.473,82.87935 381.723,124.27483 10.309,-10.0229 17.786,-23.9386 27.023,-35.4356 69.941,-96.89982 141.151,-192.89816 210.112,-290.49721 0.991,-2.77945 6.667,-7.23086 3.405,-10.0645 z"
         id="path31292-3"
         inkscape:label="8" />
      <path
         style="fill:#fa9b3d;fill-opacity:1;stroke:#000000;stroke-width:9;stroke-linecap:square;stroke-linejoin:bevel;stroke-miterlimit:110;stroke-dasharray:none;stroke-opacity:0.99"
         d="m 4583.1249,918.59005 c -6.637,2.29526 -9.534,11.02978 -14.467,15.80498 -111.225,150.90327 -220.819,303.00477 -330.983,454.68427 -15.422,22.5015 -33.108,43.7418 -46.641,67.3948 1.296,5.2713 8.458,-0.9222 11.849,-0.8255 126.684,-40.9953 253.331,-82.1395 379.619,-124.3384 2.724,-11.5254 0.462,-24.5883 1.393,-36.6307 0.535,-125.0338 0.505,-250.1365 0.302,-375.13438 -0.203,-0.45096 -0.585,-0.81401 -1.072,-0.95507 z"
         id="path31290-6"
         inkscape:label="7" />
      <path
         style="fill:#fa9b3d;fill-opacity:1;stroke:#000000;stroke-width:9;stroke-linecap:square;stroke-linejoin:bevel;stroke-miterlimit:110;stroke-dasharray:none;stroke-opacity:0.99"
         d="m 4186.0899,1473.7196 c -3.594,5.7215 -0.372,14.8044 -1.587,21.656 -0.589,214.7252 -0.663,429.4683 0.04,644.1897 5.13,3.1333 8.19,-9.2445 12.338,-12.0807 77.865,-106.2176 155.026,-212.9485 232.494,-319.4559 -6.34,-12.9002 -17.273,-24.3108 -25.352,-36.6471 -72.208,-99.07 -143.818,-198.5866 -216.687,-297.1675 z"
         id="path31288-6"
         inkscape:label="6" />
      <path
         style="fill:#fa9b3d;fill-opacity:1;stroke:#000000;stroke-width:9;stroke-linecap:square;stroke-linejoin:bevel;stroke-miterlimit:110;stroke-dasharray:none;stroke-opacity:0.99"
         d="m 4582.4839,2284.2132 c -42.053,-16.8701 -85.808,-29.2951 -128.693,-43.9155 -87.648,-28.264 -175.008,-57.6748 -263.133,-84.3042 -1.981,6.5991 9.199,13.739 12.031,20.4409 125.966,173.3104 251.468,347.0039 377.984,519.8864 5.979,0.7983 2.437,-8.9775 3.452,-12.3206 0.166,-132.7317 0.549,-265.4982 -0.06,-398.2077 -0.265,-0.7327 -0.944,-1.1965 -1.581,-1.5793 z"
         id="path31286-6"
         inkscape:label="5" />
      <path
         style="fill:#fa9b3d;fill-opacity:1;stroke:#000000;stroke-width:9;stroke-linecap:square;stroke-linejoin:bevel;stroke-miterlimit:110;stroke-dasharray:none;stroke-opacity:0.99"
         d="m 4987.3119,2578.244 c -9.444,0.2244 -18.942,5.8481 -28.372,8.0104 -120.442,39.0622 -240.924,78.0772 -361.091,117.961 -2.711,4.8982 7.734,4.5177 10.304,6.6463 204.211,66.59 408.342,133.4707 613.106,198.3431 2.369,1.0851 10.778,4.0711 7.927,-1.3261 -75.783,-105.1443 -151.561,-210.3172 -228.915,-314.3133 -4.232,-5.1412 -7.919,-10.9183 -12.959,-15.3214 z"
         id="path31304-3"
         inkscape:label="4" />
      <path
         style="display:inline;fill:#fa9b3d;fill-opacity:1;stroke:#000000;stroke-width:9;stroke-linecap:square;stroke-linejoin:bevel;stroke-miterlimit:110;stroke-dasharray:none;stroke-opacity:0.99"
         d="m 5880.0879,2704.1294 c -129.877,-43.1142 -260.18,-84.951 -390.274,-127.4115 -10.313,10.0161 -17.79,23.9368 -27.03,35.4309 -71.543,99.0695 -144.416,197.2042 -214.544,297.2805 -1.132,6.2694 8.776,-0.2317 12.006,-0.433 206.814,-66.927 413.581,-134.0383 620.064,-201.9807 1.453,-0.494 1.084,-2.6101 -0.222,-2.8862 z"
         id="path31302-1"
         inkscape:label="3" />
      <path
         style="fill:#fa9b3d;fill-opacity:1;stroke:#000000;stroke-width:9;stroke-linecap:square;stroke-linejoin:bevel;stroke-miterlimit:110;stroke-dasharray:none;stroke-opacity:0.99"
         d="m 6284.6649,2155.5884 c -129.66,42.3565 -259.658,83.7127 -388.973,127.0955 -2.947,9.0921 -0.633,20.003 -1.63,29.6932 -1.213,127.2769 -0.579,254.5602 -0.736,381.8431 6.527,1.3824 11.099,-13.3736 16.741,-18.3349 125.975,-172.2633 251.354,-344.961 376.278,-517.9878 0.939,-1.1133 -0.443,-2.8012 -1.677,-2.3067 z"
         id="path31300-6"
         inkscape:label="2" />
      <path
         style="fill:#fa9b3d;fill-opacity:1;stroke:#000000;stroke-width:9;stroke-linecap:square;stroke-linejoin:bevel;stroke-miterlimit:110;stroke-dasharray:none;stroke-opacity:0.99"
         d="m 6291.3689,1474.313 c -28.919,36.1859 -55.386,74.5503 -83.078,111.774 -53.419,73.3069 -106.663,146.741 -160.002,220.1056 6.332,12.906 17.251,24.326 25.32,36.67 72.185,99.1401 143.702,198.8872 216.412,297.5717 5.747,1.3771 2.325,-8.6028 3.269,-11.8079 0.367,-217.6402 0.582,-435.2847 0.109,-652.9209 0.115,-1.3118 -1.196,-1.103 -2.035,-1.3953 z"
         id="path31298-2"
         inkscape:label="1" />
      <path
         style="fill:#fa9b3d;fill-opacity:1;stroke:#000000;stroke-width:9;stroke-linecap:square;stroke-linejoin:bevel;stroke-miterlimit:110;stroke-dasharray:none;stroke-opacity:0.99"
         d="m 5895.6089,917.59105 c -3.746,4.80803 -0.582,13.20707 -1.775,19.25818 -0.868,131.25517 -0.433,262.51567 -0.565,393.77587 12.782,6.7226 28.34,9.6333 42.201,14.8667 117.31,38.1548 234.578,76.4487 352.102,113.9354 4.425,-4.0455 -6.428,-10.9023 -8.059,-15.8747 -127.209,-175.3903 -254.531,-350.7086 -382.673,-525.41583 z"
         id="path31296-1"
         inkscape:label="0" />
      <path
         style="fill:#fca537;fill-opacity:1;stroke:#000000;stroke-width:9;stroke-linecap:square;stroke-linejoin:bevel;stroke-miterlimit:110;stroke-dasharray:none;stroke-opacity:0.99"
         d="m 5242.5599,705.01706 c -3.737,2.47205 -0.783,8.86726 -1.835,12.77028 0.151,78.92074 -0.958,157.87003 0.954,236.77326 -1.025,7.24099 9.094,5.83628 13.479,8.48525 75.262,24.33971 150.377,49.14345 225.754,73.11795 4.707,-2.8769 -4.721,-8.9363 -5.881,-12.7759 -76.918,-106.05677 -153.882,-212.08816 -231.294,-317.78396 l -1.046,-0.52174 z"
         id="path31242-9"
         inkscape:label="9" />
      <path
         style="fill:#fca537;fill-opacity:1;stroke:#000000;stroke-width:9;stroke-linecap:square;stroke-linejoin:bevel;stroke-miterlimit:110;stroke-dasharray:none;stroke-opacity:0.99"
         d="m 4978.3229,1037.9318 c -127.192,-41.92629 -254.547,-83.37293 -382.04,-124.37134 -4.41,4.26353 6.772,11.47824 8.564,16.72475 44.781,61.24559 88.006,123.70349 134.761,183.46309 4.9,7.2646 13.732,-1.3459 20.18,-1.748 72.99,-23.4906 146.046,-46.8368 218.702,-71.3254 1.238,-0.5081 0.955,-2.4059 -0.167,-2.7431 z"
         id="path31276-7"
         inkscape:label="8" />
      <path
         style="fill:#fca537;fill-opacity:1;stroke:#000000;stroke-width:9;stroke-linecap:square;stroke-linejoin:bevel;stroke-miterlimit:110;stroke-dasharray:none;stroke-opacity:0.99"
         d="m 4577.3909,1337.7189 c -38.012,10.7855 -75.702,24.2937 -113.574,36.1545 -88.352,29.0438 -177.1,56.9356 -265.211,86.6791 -4.223,0.017 -7.66,5.5447 -1.301,5.7897 77.938,25.2663 155.842,50.6718 233.76,76.0167 10.222,-9.8924 17.607,-23.6878 26.754,-35.0584 40.085,-55.8254 81.568,-110.7137 120.168,-167.5679 0.415,-0.7063 -0.269,-1.3997 -0.596,-2.0137 z"
         id="path31238-4"
         inkscape:label="7" />
      <path
         style="fill:#fca537;fill-opacity:1;stroke:#000000;stroke-width:9;stroke-linecap:square;stroke-linejoin:bevel;stroke-miterlimit:110;stroke-dasharray:none;stroke-opacity:0.99"
         d="m 4428.5749,1812.9935 c -80.594,109.7322 -160.257,220.4032 -240.493,330.4965 4.95,4.8741 17.901,-4.7249 25.871,-5.5418 71.775,-23.4247 143.734,-46.3146 215.307,-70.3382 2.745,-12.202 0.36,-25.985 1.265,-38.7217 0.178,-71.4867 0.02,-142.9747 0,-214.462 l -0.61,-1.2063 z"
         id="path31284-2"
         inkscape:label="6" />
      <path
         style="fill:#fca537;fill-opacity:1;stroke:#000000;stroke-width:9;stroke-linecap:square;stroke-linejoin:bevel;stroke-miterlimit:110;stroke-dasharray:none;stroke-opacity:0.99"
         d="m 4589.1739,2288.6147 c -3.331,6.0323 -0.5,14.8603 -1.552,21.8666 -0.558,128.0485 -0.638,256.1066 0.06,384.1527 4.789,3.2674 7.569,-7.919 11.315,-10.669 46.754,-63.4988 92.887,-127.4515 139.293,-191.2046 -6.255,-12.7735 -17.103,-24.0539 -25.098,-36.2614 -40.874,-55.8555 -81.075,-112.2311 -122.726,-167.4998 z"
         id="path31236-0"
         inkscape:label="5" />
      <path
         style="fill:#fca537;fill-opacity:1;stroke:#000000;stroke-width:9;stroke-linecap:square;stroke-linejoin:bevel;stroke-miterlimit:110;stroke-dasharray:none;stroke-opacity:0.99"
         d="m 5236.8799,2655.7844 c -79.509,-26.9664 -159.373,-53.0587 -239.566,-77.8875 -4.014,4.403 6.265,10.5679 7.783,15.4719 75.759,105.3232 151.622,210.675 228.768,314.9312 6.876,1.6767 2.632,-9.8205 3.843,-13.3074 0.102,-79.2747 0.223,-158.5523 0.08,-237.8272 l -0.728,-1.2738 z"
         id="path31282-2"
         inkscape:label="4" />
      <path
         style="fill:#fca537;fill-opacity:1;stroke:#000000;stroke-width:9;stroke-linecap:square;stroke-linejoin:bevel;stroke-miterlimit:110;stroke-dasharray:none;stroke-opacity:0.99"
         d="m 5736.1959,2494.609 c -79.571,25.9049 -159.359,51.3513 -238.684,77.8812 -3.989,5.2867 7.556,5.2938 10.255,7.2763 125.223,40.9998 250.526,81.836 376.327,121.0153 3.885,-4.0697 -5.848,-10.5581 -7.904,-15.4759 -46.047,-63.4377 -92.029,-126.918 -138.332,-190.1682 l -1.403,-0.4465 z"
         id="path31234-5"
         inkscape:label="3" />
      <path
         style="fill:#fca537;fill-opacity:1;stroke:#000000;stroke-width:9;stroke-linecap:square;stroke-linejoin:bevel;stroke-miterlimit:110;stroke-dasharray:none;stroke-opacity:0.99"
         d="m 6285.5349,2148.5342 c -78.84,-26.9042 -158.321,-51.908 -237.481,-77.8624 -11.52,11.6719 -20.197,27.2604 -30.643,40.4117 -38.945,54.3585 -79.496,107.656 -116.788,163.1495 2.832,5.3403 12.485,-2.9837 17.57,-2.7834 122.58,-39.6713 245.176,-79.327 367.372,-120.1422 1.294,-0.4664 1.061,-2.349 -0.03,-2.7732 z"
         id="path31280-0"
         inkscape:label="2" />
      <path
         style="fill:#fca537;fill-opacity:1;stroke:#000000;stroke-width:9;stroke-linecap:square;stroke-linejoin:bevel;stroke-miterlimit:110;stroke-dasharray:none;stroke-opacity:0.99"
         d="m 6287.5239,1467.1437 c -80.004,26.0023 -160.009,52.0038 -240.013,78.0052 -2.439,10.0296 -0.369,21.5301 -1.069,32.1152 0,73.8228 0.104,147.6461 0.168,221.4695 4.967,3.2997 8.553,-9.7064 12.702,-12.7787 77.079,-105.1763 153.667,-210.7114 229.894,-316.5066 0.871,-1.1306 -0.436,-2.7614 -1.68,-2.3034 z"
         id="path31232-2"
         inkscape:label="1" />
      <path
         style="fill:#fca537;fill-opacity:1;stroke:#000000;stroke-width:9;stroke-linecap:square;stroke-linejoin:bevel;stroke-miterlimit:110;stroke-dasharray:none;stroke-opacity:0.99"
         d="m 5888.3829,916.64749 c -49.945,67.52353 -99.867,135.35021 -148.598,203.84181 9.334,16.7521 22.653,31.9563 33.496,48.0906 37.789,51.8019 74.845,104.2632 113.597,155.2878 5.538,-0.1076 1.829,-9.615 3.198,-13.0588 0.61,-130.9058 0.1,-261.8172 0.246,-392.72545 l -0.609,-1.20641 z"
         id="path31278-1"
         inkscape:label="0" />
      <path
         style="fill:#fdc328;fill-opacity:1;stroke:#000000;stroke-width:9;stroke-linecap:square;stroke-linejoin:bevel;stroke-miterlimit:110;stroke-dasharray:none;stroke-opacity:0.99"
         d="m 5242.5779,969.9952 c -3.507,3.01343 -0.6,9.50032 -1.67,13.74986 -0.373,99.46644 -0.893,198.95144 0.399,298.40914 5.102,4.2719 13.196,4.6298 19.374,7.4514 91.95,30.033 183.881,60.1535 276.083,89.3952 4.674,-1.8342 -2.229,-6.5125 -3.178,-9.2638 -95.49,-133.2945 -192.031,-265.8389 -288.931,-398.11283 -0.518,-0.81594 -1.062,-1.43347 -2.077,-1.62905 z"
         id="path31186-2"
         inkscape:label="9" />
      <path
         style="fill:#fdc328;fill-opacity:1;stroke:#000000;stroke-width:9;stroke-linecap:square;stroke-linejoin:bevel;stroke-miterlimit:110;stroke-dasharray:none;stroke-opacity:0.99"
         d="m 4922.0539,1387.9473 c -159.061,51.7762 -318.253,103.158 -477.177,155.3489 -4.115,3.9776 4.707,5.1258 7.077,6.013 95.842,31.0328 191.553,62.4681 287.497,93.1704 5.748,-3.3607 8.424,-11.0459 13.031,-15.9774 57.314,-78.5821 114.188,-157.4844 171.251,-236.2492 0.824,-1.1345 -0.419,-2.746 -1.679,-2.3057 z"
         id="path31196-3"
         inkscape:label="7" />
      <path
         style="fill:#fdc328;fill-opacity:1;stroke:#000000;stroke-width:9;stroke-linecap:square;stroke-linejoin:bevel;stroke-miterlimit:110;stroke-dasharray:none;stroke-opacity:0.99"
         d="m 4744.0159,1978.2612 c -3.496,3.2816 -0.444,10.045 -1.557,14.5314 -0.418,163.604 -0.424,327.2145 -0.02,490.8176 3.446,4.0814 6.018,-5.4012 8.645,-7.1218 59.432,-81.2005 118.421,-162.7238 177.604,-244.1056 -3.238,-8.5577 -10.945,-15.6632 -15.91,-23.66 -55.837,-76.6585 -111.289,-153.6052 -167.557,-229.9439 l -1.036,-0.4455 z"
         id="path31194-7"
         inkscape:label="5" />
      <path
         style="fill:#fdc328;fill-opacity:1;stroke:#000000;stroke-width:9;stroke-linecap:square;stroke-linejoin:bevel;stroke-miterlimit:110;stroke-dasharray:none;stroke-opacity:0.99"
         d="m 5547.0279,2233.3572 c -73.543,22.2677 -146.41,46.8909 -219.58,70.4161 -26.68,8.8244 -53.598,17.153 -80.145,26.243 -2.028,4.3225 5.84,3.8066 8.198,5.3906 157.884,51.0726 315.593,102.7328 473.578,153.4954 4.955,-1.5994 -2.27,-6.6853 -3.121,-9.3788 -58.658,-82.1942 -117.535,-164.252 -177.605,-245.4189 -0.293,-0.4577 -0.858,-0.5343 -1.325,-0.7474 z"
         id="path31192-7"
         inkscape:label="3" />
      <path
         style="fill:#fdc328;fill-opacity:1;stroke:#000000;stroke-width:9;stroke-linecap:square;stroke-linejoin:bevel;stroke-miterlimit:110;stroke-dasharray:none;stroke-opacity:0.99"
         d="m 6036.0819,1548.7473 c -98.723,32.2865 -197.745,63.6996 -296.166,96.8763 -2.533,5.4321 -0.397,12.5113 -1.24,18.4861 -0.792,98.2313 -0.399,196.4675 -0.523,294.7016 4.702,3.4298 8.124,-8.9737 12.019,-11.8663 96.281,-131.6604 192.112,-263.6497 287.586,-395.8962 0.826,-1.1361 -0.423,-2.7441 -1.679,-2.3039 z"
         id="path31188-6"
         inkscape:label="1" />
      <path
         style="fill:#fccd25;fill-opacity:1;stroke:#000000;stroke-width:9;stroke-linecap:square;stroke-linejoin:bevel;stroke-miterlimit:110;stroke-dasharray:none;stroke-opacity:0.99"
         d="m 5726.3919,1119.032 c -160.124,-51.5017 -319.613,-105.0432 -480.19,-155.09283 -3.976,5.12331 8.388,13.02192 10.455,18.96029 95.858,131.86714 190.941,264.39384 287.611,395.61234 6.381,-1.4552 9.02,-10.349 13.712,-14.563 58.947,-79.6992 117.542,-159.7048 174.405,-240.9009 1.361,-3.2028 -4.492,-2.9876 -5.993,-4.0159 z"
         id="path31212-5"
         inkscape:label="9" />
      <path
         style="fill:#fccd25;fill-opacity:1;stroke:#000000;stroke-width:9;stroke-linecap:square;stroke-linejoin:bevel;stroke-miterlimit:110;stroke-dasharray:none;stroke-opacity:0.99"
         d="m 4740.2289,1124.756 c -64.783,85.5559 -127.088,173.0759 -190.454,259.7246 -37.702,51.8929 -75.405,103.7859 -113.107,155.6787 4.238,4.9091 16.323,-4.3042 23.498,-4.8516 155.359,-50.8834 311.199,-100.3482 466.13,-152.4955 1.27,-5.9574 -6.668,-10.6089 -8.917,-15.984 -57.967,-80.931 -115.883,-161.9327 -175.264,-241.8232 l -1.561,-0.2064 z"
         id="path31208-9"
         inkscape:label="7" />
      <path
         style="fill:#fccd25;fill-opacity:1;stroke:#000000;stroke-width:9;stroke-linecap:square;stroke-linejoin:bevel;stroke-miterlimit:110;stroke-dasharray:none;stroke-opacity:0.99"
         d="m 4737.7719,1971.3461 c -100.467,31.7865 -200.552,64.7693 -300.827,97.161 -0.583,7.1642 9.28,13.9996 12.775,20.9935 95.179,130.6771 189.491,262.0746 285.498,392.0957 6.111,3.4809 3.437,-8.0054 4.001,-11.1266 0.339,-165.8938 0.588,-331.7914 0.437,-497.6827 l -0.613,-1.2014 z"
         id="path31224-7"
         inkscape:label="5" />
      <path
         style="fill:#fccd25;fill-opacity:1;stroke:#000000;stroke-width:9;stroke-linecap:square;stroke-linejoin:bevel;stroke-miterlimit:110;stroke-dasharray:none;stroke-opacity:0.99"
         d="m 5724.6089,2491.3134 c -160.267,-53.1121 -320.77,-105.5734 -481.524,-157.1875 -4.533,4.8053 -0.737,14.9496 -2.053,21.741 0.08,97.8705 -1.261,195.7889 1.266,293.6253 4.989,3.4285 12.935,-3.4616 18.886,-3.8464 154.753,-49.9964 309.502,-100.0612 463.804,-151.4317 1.458,-0.5937 0.926,-2.6536 -0.379,-2.9007 z"
         id="path31220-0"
         inkscape:label="3" />
      <path
         style="fill:#fccd25;fill-opacity:1;stroke:#000000;stroke-width:9;stroke-linecap:square;stroke-linejoin:bevel;stroke-miterlimit:110;stroke-dasharray:none;stroke-opacity:0.99"
         d="m 5738.4099,2484.5323 c 0.133,-169.2612 -0.347,-338.583 0.232,-507.8064 4.68,-4.1047 12.142,1.4375 17.511,1.8312 95.095,29.4367 189.479,61.1359 284.253,91.5895 0.266,7.7425 -10.265,15.1392 -13.984,22.7264 -94.513,131.2747 -189.689,262.0704 -285.301,392.5463 -0.773,1.238 -2.797,0.4341 -2.711,-0.887 z"
         id="path31218-6"
         inkscape:label="2" />
      <path
         style="fill:#fccd25;fill-opacity:1;stroke:#000000;stroke-width:9;stroke-linecap:square;stroke-linejoin:bevel;stroke-miterlimit:110;stroke-dasharray:none;stroke-opacity:0.99"
         d="m 6041.5829,1551.74 c -96.594,132.089 -192.944,264.6047 -288.365,397.6381 -3.851,5.6865 -8.191,11.0986 -11.676,17.0083 5.032,5.8627 15.435,5.6111 22.362,9.1975 92.39,30.0294 184.754,60.2564 277.744,88.3547 4.295,-5.3386 0.674,-15.151 1.965,-22.1255 0.25,-162.8897 0.771,-325.7847 -0.07,-488.669 l -0.627,-1.1968 z"
         id="path31216-5"
         inkscape:label="1" />
      <g
         id="g73"
         transform="matrix(-0.30901699,0.95105651,0.95105651,0.30901699,7521.4529,-9668.0145)">
        <path
           style="fill:#fccd25;fill-opacity:1;stroke:#000000;stroke-width:9;stroke-linecap:square;stroke-linejoin:bevel;stroke-miterlimit:110;stroke-dasharray:none;stroke-opacity:0.99"
           d="m 11118.796,693.2078 c -100.352,138.1656 -201.207,275.9702 -301.036,414.5115 0.267,5.5672 8.263,-0.1837 11.467,-0.2632 158.048,-51.1301 316.283,-101.751 473.716,-154.7477 8.626,-1.6977 -1.647,-9.7772 -3.327,-13.4752 -59.162,-82.2377 -118.205,-164.5722 -178.41,-246.0469 l -1.208,-0.5965 z"
           id="path31210-1"
           inkscape:label="8" />
        <path
           style="fill:#fad824;fill-opacity:1;stroke:#000000;stroke-width:9;stroke-linecap:square;stroke-linejoin:bevel;stroke-miterlimit:110;stroke-dasharray:none;stroke-opacity:0.99"
           d="m 11302.379,957.1664 c -145.873,46.2867 -291.246,94.21 -436.694,141.8336 -13.48,4.5699 -27.116,8.744 -40.469,13.6499 -1.435,5.1507 8.69,4.095 11.712,6.5805 93.821,31.0624 187.739,61.8488 281.834,92.0719 5.456,-2.5903 7.857,-9.9784 12.157,-14.2636 58.114,-78.796 116.275,-157.5844 172.874,-237.4737 0.653,-1.0058 -0.07,-2.5701 -1.414,-2.3986 z"
           id="path31200-7"
           inkscape:label="8" />
      </g>
      <g
         id="g72"
         transform="matrix(0.80901699,-0.58778525,-0.58778525,-0.80901699,-3352.1552,9746.5645)">
        <path
           style="fill:#fccd25;fill-opacity:1;stroke:#000000;stroke-width:9;stroke-linecap:square;stroke-linejoin:bevel;stroke-miterlimit:110;stroke-dasharray:none;stroke-opacity:0.99"
           d="m 11117.068,1540.0716 c -100.551,31.9136 -200.964,64.3495 -301.119,97.4768 -1.067,6.3355 8.082,12.01 10.647,18.0576 96.156,133.0449 192.956,265.636 289.482,398.4185 6.159,-3.1228 1.066,-18.3112 2.754,-26.0647 0.107,-162.187 0.869,-324.3785 0.256,-486.5631 -0.01,-1.1013 -1.156,-1.5591 -2.02,-1.3251 z"
           id="path31226-9"
           inkscape:label="6" />
        <path
           style="fill:#fad824;fill-opacity:1;stroke:#000000;stroke-width:9;stroke-linecap:square;stroke-linejoin:bevel;stroke-miterlimit:110;stroke-dasharray:none;stroke-opacity:0.99"
           d="m 11124.168,1547.081 c -3.312,4.0048 -0.599,10.7259 -1.622,15.6869 -1.062,162.9336 -0.882,325.8795 -0.256,488.8128 4.684,3.1777 7.802,-8.3475 11.558,-11.3677 58.114,-79.9344 116.176,-159.9065 174.253,-239.8679 -4.079,-9.7585 -12.763,-18.0452 -18.558,-27.2578 -54.645,-75.1361 -109.068,-150.4342 -163.912,-225.4243 -0.603,0.8617 -0.943,-0.6838 -1.463,-0.582 z"
           id="path31198-9"
           inkscape:label="6" />
      </g>
      <g
         id="g71"
         transform="matrix(-1,0,0,1,16861.919,430.78764)">
        <path
           style="fill:#fccd25;fill-opacity:1;stroke:#000000;stroke-width:9;stroke-linecap:square;stroke-linejoin:bevel;stroke-miterlimit:110;stroke-dasharray:none;stroke-opacity:0.99"
           d="m 11622.861,1903.6528 c -3.578,10.4955 -1.149,22.8019 -2.193,33.9074 -0.693,93.5232 -0.252,187.0506 -0.38,280.5756 6.286,2.8505 15.122,-3.7324 22.323,-4.8007 153.704,-49.6706 307.4,-99.3837 460.874,-149.7584 2.879,-4.9352 -7.822,-4.3888 -10.269,-6.6468 -156.033,-52.5403 -312.939,-102.5216 -469.472,-153.5169 z"
           id="path31222-9"
           inkscape:label="4" />
        <path
           style="fill:#fad824;fill-opacity:1;stroke:#000000;stroke-width:9;stroke-linecap:square;stroke-linejoin:bevel;stroke-miterlimit:110;stroke-dasharray:none;stroke-opacity:0.99"
           d="m 11926.285,1802.2226 c -99.601,31.5712 -199.003,63.825 -298.146,96.7992 -1.838,5.1241 9.128,4.3 12.24,6.785 156.064,50.911 312.12,101.9934 468.398,152.1783 5.564,-1.3091 -1.901,-7.3709 -2.941,-9.8193 -59.143,-81.9064 -118.341,-163.7763 -177.851,-245.4123 -0.62,0.428 -1.092,-0.8137 -1.7,-0.5309 z"
           id="path31206-7"
           inkscape:label="4" />
      </g>
      <path
         style="fill:#fad824;fill-opacity:1;stroke:#000000;stroke-width:9;stroke-linecap:square;stroke-linejoin:bevel;stroke-miterlimit:110;stroke-dasharray:none;stroke-opacity:0.99"
         d="m 5732.1509,2484.9091 c -61.915,-83.6489 -123.015,-167.9144 -183.953,-252.2825 4.283,-10.0029 13.058,-18.5406 19.058,-27.9835 54.18,-73.9563 107.141,-148.8257 162.331,-222.0307 1.02,-2.7552 6.611,-6.4077 6.169,-1.0728 -0.32,167.0506 0.655,334.1113 -0.912,501.1545 0.331,1.4868 -1.059,3.7027 -2.693,2.215 z"
         id="path31204-3"
         inkscape:label="2" />
      <g
         id="g74"
         transform="matrix(-0.30901699,-0.95105651,-0.95105651,0.30901699,10138.919,12435.467)">
        <path
           style="fill:#fccd25;fill-opacity:1;stroke:#000000;stroke-width:9;stroke-linecap:square;stroke-linejoin:bevel;stroke-miterlimit:110;stroke-dasharray:none;stroke-opacity:0.99"
           d="m 11628.229,533.6528 c -3.387,4.098 4.59,9.0522 5.889,13.0392 94.385,130.5675 188.613,261.2688 284.928,390.423 2.967,2.9636 7.562,14.0341 11.516,5.8352 59.405,-82.0673 120.221,-163.1613 177.602,-246.665 2.68,-2.8579 4.236,-7.7886 -1.419,-7.9899 -159.191,-51.9576 -318.409,-104.0206 -477.978,-154.7163 z"
           id="path31214-1"
           inkscape:label="0" />
        <path
           style="fill:#fad824;fill-opacity:1;stroke:#000000;stroke-width:9;stroke-linecap:square;stroke-linejoin:bevel;stroke-miterlimit:110;stroke-dasharray:none;stroke-opacity:0.99"
           d="m 11620.266,535.9167 c -0.924,79.7477 -0.504,159.7512 -0.744,239.5981 0.07,25.0809 -0.13,50.1703 0.294,75.2458 8.881,5.2993 20.242,6.9755 30.043,10.9028 89.101,29.0452 178.094,58.5248 267.47,86.6756 5.617,-1.0182 -0.585,-7.327 -2.148,-9.5188 -97.347,-134.3957 -195.015,-268.5648 -292.543,-402.8329 -0.806,-0.9677 -1.519,-0.6034 -2.372,-0.071 z"
           id="path31202-5"
           inkscape:label="0" />
      </g>
      <path
         style="fill:#f3ee27;fill-opacity:1;stroke:#000000;stroke-width:9;stroke-linecap:square;stroke-linejoin:bevel;stroke-miterlimit:110;stroke-dasharray:none;stroke-opacity:0.99"
         d="m 5541.5729,1384.6302 c -85.891,-28.9392 -172.361,-56.239 -258.662,-83.9687 -13.397,-4.1299 -26.682,-8.7257 -40.193,-12.4261 -3.752,2.5953 -0.564,9.1653 -1.732,13.1524 -0.825,165.1071 -0.374,330.2179 -0.492,495.329 4.29,3.8421 7.329,-7.78 10.807,-10.234 96.911,-133.2337 194.121,-266.2513 290.714,-399.7156 -0.07,-0.7639 0.734,-1.6565 -0.442,-2.137 z"
         id="path31026-9"
         inkscape:label="9" />
      <path
         style="fill:#f3ee27;fill-opacity:1;stroke:#000000;stroke-width:9;stroke-linecap:square;stroke-linejoin:bevel;stroke-miterlimit:110;stroke-dasharray:none;stroke-opacity:0.99"
         d="m 4932.4889,1386.7557 c -5.691,4.2806 -9.011,11.7741 -13.812,17.1925 -56.544,77.1206 -113.146,154.2152 -168.442,232.2368 -1.465,2.764 -7.791,8.6382 -1.274,9.675 161.08,52.3198 322.13,104.7553 483.215,157.0688 4.733,-3.1744 -5.552,-9.9462 -7.034,-14.2895 -97.174,-133.7538 -194.506,-267.3875 -291.513,-401.2597 l -0.928,-0.5077 z"
         id="path31024-2"
         inkscape:label="7" />
      <path
         style="fill:#f3ee27;fill-opacity:1;stroke:#000000;stroke-width:9;stroke-linecap:square;stroke-linejoin:bevel;stroke-miterlimit:110;stroke-dasharray:none;stroke-opacity:0.99"
         d="m 5230.8109,1810.3079 c -162.358,52.6314 -324.586,105.6745 -487.003,158.1224 -2.283,4.8135 6.14,9.5831 7.918,14.2994 59.055,81.2506 117.902,162.6481 177.175,243.7363 4.364,1.495 5.711,-6.2661 8.751,-8.3787 98.915,-134.7286 197.071,-270.0175 294.885,-405.5446 0.706,-1.1517 -0.5,-2.6404 -1.726,-2.2348 z"
         id="path31032-8"
         inkscape:label="5" />
      <path
         style="fill:#f3ee27;fill-opacity:1;stroke:#000000;stroke-width:9;stroke-linecap:square;stroke-linejoin:bevel;stroke-miterlimit:110;stroke-dasharray:none;stroke-opacity:0.99"
         d="m 5242.7279,1814.8266 c -3.465,2.674 -0.683,8.8158 -1.675,12.7784 -0.73,165.1695 -0.799,330.3497 -0.44,495.5185 -0.79,3.7937 3.028,6.3122 6.161,3.886 98.503,-32.2582 197.378,-63.4068 295.484,-96.8473 4.07,-2.3098 -2.097,-6.4483 -3.245,-9.1851 -97.911,-135.367 -196.041,-270.5839 -294.844,-405.3006 -0.285,-0.5392 -0.944,-0.5893 -1.441,-0.8499 z"
         id="path31030-3"
         inkscape:label="3" />
      <path
         style="fill:#f3ee27;fill-opacity:1;stroke:#000000;stroke-width:9;stroke-linecap:square;stroke-linejoin:bevel;stroke-miterlimit:110;stroke-dasharray:none;stroke-opacity:0.99"
         d="m 5732.4299,1648.1201 c -136.609,43.1099 -272.645,88.0632 -408.957,132.1243 -25.011,8.3663 -50.461,15.899 -75.23,24.72 -1.833,4.3519 5.909,4.0543 8.411,5.6128 158.121,51.6668 316.245,103.3756 474.596,154.3036 4.097,-1.7312 1.841,-8.1361 2.797,-11.6609 1.388,-88.1846 0.633,-176.3906 0.528,-264.5826 -0.176,-13.146 0.08,-26.3257 -0.517,-39.4514 -0.608,-0.233 -0.697,-1.4494 -1.628,-1.0658 z"
         id="path31028-9"
         inkscape:label="1" />
      <path
         style="fill:#f0f921;fill-opacity:1;stroke:#000000;stroke-width:9;stroke-linecap:square;stroke-linejoin:bevel;stroke-miterlimit:110;stroke-dasharray:none;stroke-opacity:0.99"
         d="m 5236.3859,1287.0418 c -81.726,25.3539 -162.946,52.4412 -244.318,78.948 -18.49,6.2437 -37.207,11.9447 -55.501,18.701 -0.993,4.5891 5.346,8.217 7.064,12.3977 96.623,133.5411 193.231,267.1125 290.601,400.0966 4.531,2.735 4.091,-4.7444 3.833,-7.2539 0.358,-167.1581 0.503,-334.3252 -0.125,-501.4795 -0.546,-0.4353 -0.395,-1.7392 -1.554,-1.4099 z"
         id="path31180-8"
         inkscape:label="8" />
      <path
         style="fill:#f0f921;fill-opacity:1;stroke:#000000;stroke-width:9;stroke-linecap:square;stroke-linejoin:bevel;stroke-miterlimit:110;stroke-dasharray:none;stroke-opacity:0.99"
         d="m 5228.9519,1804.7866 c -157.632,-52.1485 -315.582,-103.3486 -473.605,-154.3049 -3.866,-0.2115 -9.228,-5.0736 -12.274,-1.9424 -1.519,82.9616 -0.874,165.97 -0.845,248.9493 0.495,22.3347 -0.558,44.8348 1.508,67.0688 3.766,2.4941 9.015,-2.2213 13.281,-2.5705 157.551,-51.0409 315.074,-102.199 472.281,-154.2777 1.358,-0.6217 1.022,-2.645 -0.346,-2.9226 z"
         id="path31172-7"
         inkscape:label="6" />
      <path
         style="fill:#f0f921;fill-opacity:1;stroke:#000000;stroke-width:9;stroke-linecap:square;stroke-linejoin:bevel;stroke-miterlimit:110;stroke-dasharray:none;stroke-opacity:0.99"
         d="m 5236.4159,1812.9628 c -17.589,22.3182 -33.8,46.024 -50.825,68.8955 -84.087,115.4685 -167.977,231.0805 -251.961,346.6238 0.02,4.3317 7.235,3.6189 10.216,5.5873 97.197,31.6993 194.419,63.3302 291.781,94.515 4.122,-1.3984 1.03,-7.8978 2.038,-11.3487 0.545,-167.613 0.924,-335.2323 0.602,-502.8463 -0.178,-1.1434 -0.852,-1.3548 -1.854,-1.4288 z"
         id="path31174-4"
         inkscape:label="4" />
      <path
         style="fill:#f0f921;fill-opacity:1;stroke:#000000;stroke-width:9;stroke-linecap:square;stroke-linejoin:bevel;stroke-miterlimit:110;stroke-dasharray:none;stroke-opacity:0.99"
         d="m 5732.1189,1967.5581 c -161.17,-52.0136 -321.976,-105.181 -483.467,-156.1886 -6.503,-1.0904 0.619,6.7671 2.192,8.8929 98.108,135.1702 196.112,270.4176 294.398,405.4561 3.97,1.6273 5.361,-5.2998 8.049,-7.301 58.272,-79.1043 116.225,-158.4549 173.285,-238.4383 1.719,-3.8783 6.902,-7.4177 6.149,-11.9225 l -0.544,-0.4672 z"
         id="path31176-1"
         inkscape:label="2" />
      <path
         style="fill:#f0f921;fill-opacity:1;stroke:#000000;stroke-width:9;stroke-linecap:square;stroke-linejoin:bevel;stroke-miterlimit:110;stroke-dasharray:none;stroke-opacity:0.99"
         d="m 5545.6699,1387.2062 c -7.737,7.9477 -13.522,18.3063 -20.536,27.147 -90.004,124.2685 -180.799,247.9692 -270.132,372.7212 -2.421,4.7953 -8.025,8.9656 -8.287,14.4376 4.611,1.9551 10.122,-3.0999 15.011,-3.5632 155.332,-50.8014 311.077,-100.3999 465.995,-152.4632 5.524,-0.4254 2.857,-5.3351 0.277,-7.8586 -60.171,-83.4333 -120.429,-166.808 -181.175,-249.821 l -0.939,-0.4888 z"
         id="path31178-7"
         inkscape:label="0" />
    </g>
  </g>
</svg>
