<svg xmlns:xlink="http://www.w3.org/1999/xlink" xmlns="http://www.w3.org/2000/svg" width="432pt" height="288pt" viewBox="0 0 432 288" version="1.1">
 <metadata>
  <rdf:RDF xmlns:dc="http://purl.org/dc/elements/1.1/" xmlns:cc="http://creativecommons.org/ns#" xmlns:rdf="http://www.w3.org/1999/02/22-rdf-syntax-ns#">
   <cc:Work>
    <dc:type rdf:resource="http://purl.org/dc/dcmitype/StillImage"/>
    <dc:date>2023-11-06T10:26:08.778822</dc:date>
    <dc:format>image/svg+xml</dc:format>
    <dc:creator>
     <cc:Agent>
      <dc:title>Matplotlib v3.8.0, https://matplotlib.org/</dc:title>
     </cc:Agent>
    </dc:creator>
   </cc:Work>
  </rdf:RDF>
 </metadata>
 <defs>
  <style type="text/css">*{stroke-linejoin: round; stroke-linecap: butt}</style>
 </defs>
 <g id="figure_1">
  <g id="patch_1">
   <path d="M 0 288  L 432 288  L 432 0  L 0 0  L 0 288  z " style="fill: none"/>
  </g>
  <g id="axes_1">
   <g id="patch_2">
    <path d="M 55.04 240.52  L 421.2 240.52  L 421.2 29.76  L 55.04 29.76  L 55.04 240.52  z " style="fill: none; opacity: 0"/>
   </g>
   <g id="patch_3">
    <path d="M 72.311698 29.76  L 127.581132 29.76  L 127.581132 89.977143  L 72.311698 89.977143  z " clip-path="url(#p99afe75dcf)" style="fill: #377eb8"/>
   </g>
   <g id="patch_4">
    <path d="M 141.398491 29.76  L 196.667925 29.76  L 196.667925 89.977143  L 141.398491 89.977143  z " clip-path="url(#p99afe75dcf)" style="fill: #377eb8"/>
   </g>
   <g id="patch_5">
    <path d="M 210.485283 29.76  L 265.754717 29.76  L 265.754717 89.977143  L 210.485283 89.977143  z " clip-path="url(#p99afe75dcf)" style="fill: #377eb8"/>
   </g>
   <g id="patch_6">
    <path d="M 279.572075 29.76  L 334.841509 29.76  L 334.841509 230.48381  L 279.572075 230.48381  z " clip-path="url(#p99afe75dcf)" style="fill: #377eb8"/>
   </g>
   <g id="patch_7">
    <path d="M 348.658868 29.76  L 403.928302 29.76  L 403.928302 230.48381  L 348.658868 230.48381  z " clip-path="url(#p99afe75dcf)" style="fill: #377eb8"/>
   </g>
   <g id="patch_8">
    <path d="M 72.311698 89.977143  L 127.581132 89.977143  L 127.581132 170.266667  L 72.311698 170.266667  z " clip-path="url(#p99afe75dcf)" style="fill: #e41a1c"/>
   </g>
   <g id="patch_9">
    <path d="M 141.398491 89.977143  L 196.667925 89.977143  L 196.667925 170.266667  L 141.398491 170.266667  z " clip-path="url(#p99afe75dcf)" style="fill: #e41a1c"/>
   </g>
   <g id="patch_10">
    <path d="M 210.485283 89.977143  L 265.754717 89.977143  L 265.754717 170.266667  L 210.485283 170.266667  z " clip-path="url(#p99afe75dcf)" style="fill: #e41a1c"/>
   </g>
   <g id="patch_11">
    <path d="M 279.572075 29.76  L 334.841509 29.76  L 334.841509 29.76  L 279.572075 29.76  z " clip-path="url(#p99afe75dcf)" style="fill: #e41a1c"/>
   </g>
   <g id="patch_12">
    <path d="M 348.658868 29.76  L 403.928302 29.76  L 403.928302 29.76  L 348.658868 29.76  z " clip-path="url(#p99afe75dcf)" style="fill: #e41a1c"/>
   </g>
   <g id="patch_13">
    <path d="M 72.311698 170.266667  L 127.581132 170.266667  L 127.581132 230.48381  L 72.311698 230.48381  z " clip-path="url(#p99afe75dcf)" style="fill: #377eb8"/>
   </g>
   <g id="patch_14">
    <path d="M 141.398491 170.266667  L 196.667925 170.266667  L 196.667925 230.48381  L 141.398491 230.48381  z " clip-path="url(#p99afe75dcf)" style="fill: #377eb8"/>
   </g>
   <g id="patch_15">
    <path d="M 210.485283 170.266667  L 265.754717 170.266667  L 265.754717 230.48381  L 210.485283 230.48381  z " clip-path="url(#p99afe75dcf)" style="fill: #377eb8"/>
   </g>
   <g id="patch_16">
    <path d="M 279.572075 29.76  L 334.841509 29.76  L 334.841509 29.76  L 279.572075 29.76  z " clip-path="url(#p99afe75dcf)" style="fill: #377eb8"/>
   </g>
   <g id="patch_17">
    <path d="M 348.658868 29.76  L 403.928302 29.76  L 403.928302 29.76  L 348.658868 29.76  z " clip-path="url(#p99afe75dcf)" style="fill: #377eb8"/>
   </g>
   <g id="matplotlib.axis_1">
    <g id="xtick_1">
     <g id="line2d_1">
      <defs>
       <path id="m907fefb651" d="M 0 0  L 0 3.5  " style="stroke: #000000; stroke-width: 0.8"/>
      </defs>
      <g>
       <use xlink:href="#m907fefb651" x="99.946415" y="240.52" style="stroke: #000000; stroke-width: 0.8"/>
      </g>
     </g>
     <g id="text_1">
      <!-- 0 or 5 -->
      <g transform="translate(82.359853 256.638125) scale(0.12 -0.12)">
       <defs>
        <path id="DejaVuSans-30" d="M 2034 4250  Q 1547 4250 1301 3770  Q 1056 3291 1056 2328  Q 1056 1369 1301 889  Q 1547 409 2034 409  Q 2525 409 2770 889  Q 3016 1369 3016 2328  Q 3016 3291 2770 3770  Q 2525 4250 2034 4250  z M 2034 4750  Q 2819 4750 3233 4129  Q 3647 3509 3647 2328  Q 3647 1150 3233 529  Q 2819 -91 2034 -91  Q 1250 -91 836 529  Q 422 1150 422 2328  Q 422 3509 836 4129  Q 1250 4750 2034 4750  z " transform="scale(0.015625)"/>
        <path id="DejaVuSans-20" transform="scale(0.015625)"/>
        <path id="DejaVuSans-6f" d="M 1959 3097  Q 1497 3097 1228 2736  Q 959 2375 959 1747  Q 959 1119 1226 758  Q 1494 397 1959 397  Q 2419 397 2687 759  Q 2956 1122 2956 1747  Q 2956 2369 2687 2733  Q 2419 3097 1959 3097  z M 1959 3584  Q 2709 3584 3137 3096  Q 3566 2609 3566 1747  Q 3566 888 3137 398  Q 2709 -91 1959 -91  Q 1206 -91 779 398  Q 353 888 353 1747  Q 353 2609 779 3096  Q 1206 3584 1959 3584  z " transform="scale(0.015625)"/>
        <path id="DejaVuSans-72" d="M 2631 2963  Q 2534 3019 2420 3045  Q 2306 3072 2169 3072  Q 1681 3072 1420 2755  Q 1159 2438 1159 1844  L 1159 0  L 581 0  L 581 3500  L 1159 3500  L 1159 2956  Q 1341 3275 1631 3429  Q 1922 3584 2338 3584  Q 2397 3584 2469 3576  Q 2541 3569 2628 3553  L 2631 2963  z " transform="scale(0.015625)"/>
        <path id="DejaVuSans-35" d="M 691 4666  L 3169 4666  L 3169 4134  L 1269 4134  L 1269 2991  Q 1406 3038 1543 3061  Q 1681 3084 1819 3084  Q 2600 3084 3056 2656  Q 3513 2228 3513 1497  Q 3513 744 3044 326  Q 2575 -91 1722 -91  Q 1428 -91 1123 -41  Q 819 9 494 109  L 494 744  Q 775 591 1075 516  Q 1375 441 1709 441  Q 2250 441 2565 725  Q 2881 1009 2881 1497  Q 2881 1984 2565 2268  Q 2250 2553 1709 2553  Q 1456 2553 1204 2497  Q 953 2441 691 2322  L 691 4666  z " transform="scale(0.015625)"/>
       </defs>
       <use xlink:href="#DejaVuSans-30"/>
       <use xlink:href="#DejaVuSans-20" x="63.623047"/>
       <use xlink:href="#DejaVuSans-6f" x="95.410156"/>
       <use xlink:href="#DejaVuSans-72" x="156.591797"/>
       <use xlink:href="#DejaVuSans-20" x="197.705078"/>
       <use xlink:href="#DejaVuSans-35" x="229.492188"/>
      </g>
     </g>
    </g>
    <g id="xtick_2">
     <g id="line2d_2">
      <g>
       <use xlink:href="#m907fefb651" x="169.033208" y="240.52" style="stroke: #000000; stroke-width: 0.8"/>
      </g>
     </g>
     <g id="text_2">
      <!-- 1 or 6 -->
      <g transform="translate(151.446645 256.638125) scale(0.12 -0.12)">
       <defs>
        <path id="DejaVuSans-31" d="M 794 531  L 1825 531  L 1825 4091  L 703 3866  L 703 4441  L 1819 4666  L 2450 4666  L 2450 531  L 3481 531  L 3481 0  L 794 0  L 794 531  z " transform="scale(0.015625)"/>
        <path id="DejaVuSans-36" d="M 2113 2584  Q 1688 2584 1439 2293  Q 1191 2003 1191 1497  Q 1191 994 1439 701  Q 1688 409 2113 409  Q 2538 409 2786 701  Q 3034 994 3034 1497  Q 3034 2003 2786 2293  Q 2538 2584 2113 2584  z M 3366 4563  L 3366 3988  Q 3128 4100 2886 4159  Q 2644 4219 2406 4219  Q 1781 4219 1451 3797  Q 1122 3375 1075 2522  Q 1259 2794 1537 2939  Q 1816 3084 2150 3084  Q 2853 3084 3261 2657  Q 3669 2231 3669 1497  Q 3669 778 3244 343  Q 2819 -91 2113 -91  Q 1303 -91 875 529  Q 447 1150 447 2328  Q 447 3434 972 4092  Q 1497 4750 2381 4750  Q 2619 4750 2861 4703  Q 3103 4656 3366 4563  z " transform="scale(0.015625)"/>
       </defs>
       <use xlink:href="#DejaVuSans-31"/>
       <use xlink:href="#DejaVuSans-20" x="63.623047"/>
       <use xlink:href="#DejaVuSans-6f" x="95.410156"/>
       <use xlink:href="#DejaVuSans-72" x="156.591797"/>
       <use xlink:href="#DejaVuSans-20" x="197.705078"/>
       <use xlink:href="#DejaVuSans-36" x="229.492188"/>
      </g>
     </g>
    </g>
    <g id="xtick_3">
     <g id="line2d_3">
      <g>
       <use xlink:href="#m907fefb651" x="238.12" y="240.52" style="stroke: #000000; stroke-width: 0.8"/>
      </g>
     </g>
     <g id="text_3">
      <!-- 2 or 7 -->
      <g transform="translate(220.533437 256.638125) scale(0.12 -0.12)">
       <defs>
        <path id="DejaVuSans-32" d="M 1228 531  L 3431 531  L 3431 0  L 469 0  L 469 531  Q 828 903 1448 1529  Q 2069 2156 2228 2338  Q 2531 2678 2651 2914  Q 2772 3150 2772 3378  Q 2772 3750 2511 3984  Q 2250 4219 1831 4219  Q 1534 4219 1204 4116  Q 875 4013 500 3803  L 500 4441  Q 881 4594 1212 4672  Q 1544 4750 1819 4750  Q 2544 4750 2975 4387  Q 3406 4025 3406 3419  Q 3406 3131 3298 2873  Q 3191 2616 2906 2266  Q 2828 2175 2409 1742  Q 1991 1309 1228 531  z " transform="scale(0.015625)"/>
        <path id="DejaVuSans-37" d="M 525 4666  L 3525 4666  L 3525 4397  L 1831 0  L 1172 0  L 2766 4134  L 525 4134  L 525 4666  z " transform="scale(0.015625)"/>
       </defs>
       <use xlink:href="#DejaVuSans-32"/>
       <use xlink:href="#DejaVuSans-20" x="63.623047"/>
       <use xlink:href="#DejaVuSans-6f" x="95.410156"/>
       <use xlink:href="#DejaVuSans-72" x="156.591797"/>
       <use xlink:href="#DejaVuSans-20" x="197.705078"/>
       <use xlink:href="#DejaVuSans-37" x="229.492188"/>
      </g>
     </g>
    </g>
    <g id="xtick_4">
     <g id="line2d_4">
      <g>
       <use xlink:href="#m907fefb651" x="307.206792" y="240.52" style="stroke: #000000; stroke-width: 0.8"/>
      </g>
     </g>
     <g id="text_4">
      <!-- 3 or 8 -->
      <g transform="translate(289.62023 256.638125) scale(0.12 -0.12)">
       <defs>
        <path id="DejaVuSans-33" d="M 2597 2516  Q 3050 2419 3304 2112  Q 3559 1806 3559 1356  Q 3559 666 3084 287  Q 2609 -91 1734 -91  Q 1441 -91 1130 -33  Q 819 25 488 141  L 488 750  Q 750 597 1062 519  Q 1375 441 1716 441  Q 2309 441 2620 675  Q 2931 909 2931 1356  Q 2931 1769 2642 2001  Q 2353 2234 1838 2234  L 1294 2234  L 1294 2753  L 1863 2753  Q 2328 2753 2575 2939  Q 2822 3125 2822 3475  Q 2822 3834 2567 4026  Q 2313 4219 1838 4219  Q 1578 4219 1281 4162  Q 984 4106 628 3988  L 628 4550  Q 988 4650 1302 4700  Q 1616 4750 1894 4750  Q 2613 4750 3031 4423  Q 3450 4097 3450 3541  Q 3450 3153 3228 2886  Q 3006 2619 2597 2516  z " transform="scale(0.015625)"/>
        <path id="DejaVuSans-38" d="M 2034 2216  Q 1584 2216 1326 1975  Q 1069 1734 1069 1313  Q 1069 891 1326 650  Q 1584 409 2034 409  Q 2484 409 2743 651  Q 3003 894 3003 1313  Q 3003 1734 2745 1975  Q 2488 2216 2034 2216  z M 1403 2484  Q 997 2584 770 2862  Q 544 3141 544 3541  Q 544 4100 942 4425  Q 1341 4750 2034 4750  Q 2731 4750 3128 4425  Q 3525 4100 3525 3541  Q 3525 3141 3298 2862  Q 3072 2584 2669 2484  Q 3125 2378 3379 2068  Q 3634 1759 3634 1313  Q 3634 634 3220 271  Q 2806 -91 2034 -91  Q 1263 -91 848 271  Q 434 634 434 1313  Q 434 1759 690 2068  Q 947 2378 1403 2484  z M 1172 3481  Q 1172 3119 1398 2916  Q 1625 2713 2034 2713  Q 2441 2713 2670 2916  Q 2900 3119 2900 3481  Q 2900 3844 2670 4047  Q 2441 4250 2034 4250  Q 1625 4250 1398 4047  Q 1172 3844 1172 3481  z " transform="scale(0.015625)"/>
       </defs>
       <use xlink:href="#DejaVuSans-33"/>
       <use xlink:href="#DejaVuSans-20" x="63.623047"/>
       <use xlink:href="#DejaVuSans-6f" x="95.410156"/>
       <use xlink:href="#DejaVuSans-72" x="156.591797"/>
       <use xlink:href="#DejaVuSans-20" x="197.705078"/>
       <use xlink:href="#DejaVuSans-38" x="229.492188"/>
      </g>
     </g>
    </g>
    <g id="xtick_5">
     <g id="line2d_5">
      <g>
       <use xlink:href="#m907fefb651" x="376.293585" y="240.52" style="stroke: #000000; stroke-width: 0.8"/>
      </g>
     </g>
     <g id="text_5">
      <!-- 4 or 9 -->
      <g transform="translate(358.707022 256.638125) scale(0.12 -0.12)">
       <defs>
        <path id="DejaVuSans-34" d="M 2419 4116  L 825 1625  L 2419 1625  L 2419 4116  z M 2253 4666  L 3047 4666  L 3047 1625  L 3713 1625  L 3713 1100  L 3047 1100  L 3047 0  L 2419 0  L 2419 1100  L 313 1100  L 313 1709  L 2253 4666  z " transform="scale(0.015625)"/>
        <path id="DejaVuSans-39" d="M 703 97  L 703 672  Q 941 559 1184 500  Q 1428 441 1663 441  Q 2288 441 2617 861  Q 2947 1281 2994 2138  Q 2813 1869 2534 1725  Q 2256 1581 1919 1581  Q 1219 1581 811 2004  Q 403 2428 403 3163  Q 403 3881 828 4315  Q 1253 4750 1959 4750  Q 2769 4750 3195 4129  Q 3622 3509 3622 2328  Q 3622 1225 3098 567  Q 2575 -91 1691 -91  Q 1453 -91 1209 -44  Q 966 3 703 97  z M 1959 2075  Q 2384 2075 2632 2365  Q 2881 2656 2881 3163  Q 2881 3666 2632 3958  Q 2384 4250 1959 4250  Q 1534 4250 1286 3958  Q 1038 3666 1038 3163  Q 1038 2656 1286 2365  Q 1534 2075 1959 2075  z " transform="scale(0.015625)"/>
       </defs>
       <use xlink:href="#DejaVuSans-34"/>
       <use xlink:href="#DejaVuSans-20" x="63.623047"/>
       <use xlink:href="#DejaVuSans-6f" x="95.410156"/>
       <use xlink:href="#DejaVuSans-72" x="156.591797"/>
       <use xlink:href="#DejaVuSans-20" x="197.705078"/>
       <use xlink:href="#DejaVuSans-39" x="229.492188"/>
      </g>
     </g>
    </g>
    <g id="text_6">
     <!-- Days of the dek -->
     <g transform="translate(181.360375 274.0755) scale(0.144 -0.144)">
      <defs>
       <path id="DejaVuSans-44" d="M 1259 4147  L 1259 519  L 2022 519  Q 2988 519 3436 956  Q 3884 1394 3884 2338  Q 3884 3275 3436 3711  Q 2988 4147 2022 4147  L 1259 4147  z M 628 4666  L 1925 4666  Q 3281 4666 3915 4102  Q 4550 3538 4550 2338  Q 4550 1131 3912 565  Q 3275 0 1925 0  L 628 0  L 628 4666  z " transform="scale(0.015625)"/>
       <path id="DejaVuSans-61" d="M 2194 1759  Q 1497 1759 1228 1600  Q 959 1441 959 1056  Q 959 750 1161 570  Q 1363 391 1709 391  Q 2188 391 2477 730  Q 2766 1069 2766 1631  L 2766 1759  L 2194 1759  z M 3341 1997  L 3341 0  L 2766 0  L 2766 531  Q 2569 213 2275 61  Q 1981 -91 1556 -91  Q 1019 -91 701 211  Q 384 513 384 1019  Q 384 1609 779 1909  Q 1175 2209 1959 2209  L 2766 2209  L 2766 2266  Q 2766 2663 2505 2880  Q 2244 3097 1772 3097  Q 1472 3097 1187 3025  Q 903 2953 641 2809  L 641 3341  Q 956 3463 1253 3523  Q 1550 3584 1831 3584  Q 2591 3584 2966 3190  Q 3341 2797 3341 1997  z " transform="scale(0.015625)"/>
       <path id="DejaVuSans-79" d="M 2059 -325  Q 1816 -950 1584 -1140  Q 1353 -1331 966 -1331  L 506 -1331  L 506 -850  L 844 -850  Q 1081 -850 1212 -737  Q 1344 -625 1503 -206  L 1606 56  L 191 3500  L 800 3500  L 1894 763  L 2988 3500  L 3597 3500  L 2059 -325  z " transform="scale(0.015625)"/>
       <path id="DejaVuSans-73" d="M 2834 3397  L 2834 2853  Q 2591 2978 2328 3040  Q 2066 3103 1784 3103  Q 1356 3103 1142 2972  Q 928 2841 928 2578  Q 928 2378 1081 2264  Q 1234 2150 1697 2047  L 1894 2003  Q 2506 1872 2764 1633  Q 3022 1394 3022 966  Q 3022 478 2636 193  Q 2250 -91 1575 -91  Q 1294 -91 989 -36  Q 684 19 347 128  L 347 722  Q 666 556 975 473  Q 1284 391 1588 391  Q 1994 391 2212 530  Q 2431 669 2431 922  Q 2431 1156 2273 1281  Q 2116 1406 1581 1522  L 1381 1569  Q 847 1681 609 1914  Q 372 2147 372 2553  Q 372 3047 722 3315  Q 1072 3584 1716 3584  Q 2034 3584 2315 3537  Q 2597 3491 2834 3397  z " transform="scale(0.015625)"/>
       <path id="DejaVuSans-66" d="M 2375 4863  L 2375 4384  L 1825 4384  Q 1516 4384 1395 4259  Q 1275 4134 1275 3809  L 1275 3500  L 2222 3500  L 2222 3053  L 1275 3053  L 1275 0  L 697 0  L 697 3053  L 147 3053  L 147 3500  L 697 3500  L 697 3744  Q 697 4328 969 4595  Q 1241 4863 1831 4863  L 2375 4863  z " transform="scale(0.015625)"/>
       <path id="DejaVuSans-74" d="M 1172 4494  L 1172 3500  L 2356 3500  L 2356 3053  L 1172 3053  L 1172 1153  Q 1172 725 1289 603  Q 1406 481 1766 481  L 2356 481  L 2356 0  L 1766 0  Q 1100 0 847 248  Q 594 497 594 1153  L 594 3053  L 172 3053  L 172 3500  L 594 3500  L 594 4494  L 1172 4494  z " transform="scale(0.015625)"/>
       <path id="DejaVuSans-68" d="M 3513 2113  L 3513 0  L 2938 0  L 2938 2094  Q 2938 2591 2744 2837  Q 2550 3084 2163 3084  Q 1697 3084 1428 2787  Q 1159 2491 1159 1978  L 1159 0  L 581 0  L 581 4863  L 1159 4863  L 1159 2956  Q 1366 3272 1645 3428  Q 1925 3584 2291 3584  Q 2894 3584 3203 3211  Q 3513 2838 3513 2113  z " transform="scale(0.015625)"/>
       <path id="DejaVuSans-65" d="M 3597 1894  L 3597 1613  L 953 1613  Q 991 1019 1311 708  Q 1631 397 2203 397  Q 2534 397 2845 478  Q 3156 559 3463 722  L 3463 178  Q 3153 47 2828 -22  Q 2503 -91 2169 -91  Q 1331 -91 842 396  Q 353 884 353 1716  Q 353 2575 817 3079  Q 1281 3584 2069 3584  Q 2775 3584 3186 3129  Q 3597 2675 3597 1894  z M 3022 2063  Q 3016 2534 2758 2815  Q 2500 3097 2075 3097  Q 1594 3097 1305 2825  Q 1016 2553 972 2059  L 3022 2063  z " transform="scale(0.015625)"/>
       <path id="DejaVuSans-64" d="M 2906 2969  L 2906 4863  L 3481 4863  L 3481 0  L 2906 0  L 2906 525  Q 2725 213 2448 61  Q 2172 -91 1784 -91  Q 1150 -91 751 415  Q 353 922 353 1747  Q 353 2572 751 3078  Q 1150 3584 1784 3584  Q 2172 3584 2448 3432  Q 2725 3281 2906 2969  z M 947 1747  Q 947 1113 1208 752  Q 1469 391 1925 391  Q 2381 391 2643 752  Q 2906 1113 2906 1747  Q 2906 2381 2643 2742  Q 2381 3103 1925 3103  Q 1469 3103 1208 2742  Q 947 2381 947 1747  z " transform="scale(0.015625)"/>
       <path id="DejaVuSans-6b" d="M 581 4863  L 1159 4863  L 1159 1991  L 2875 3500  L 3609 3500  L 1753 1863  L 3688 0  L 2938 0  L 1159 1709  L 1159 0  L 581 0  L 581 4863  z " transform="scale(0.015625)"/>
      </defs>
      <use xlink:href="#DejaVuSans-44"/>
      <use xlink:href="#DejaVuSans-61" x="77.001953"/>
      <use xlink:href="#DejaVuSans-79" x="138.28125"/>
      <use xlink:href="#DejaVuSans-73" x="197.460938"/>
      <use xlink:href="#DejaVuSans-20" x="249.560547"/>
      <use xlink:href="#DejaVuSans-6f" x="281.347656"/>
      <use xlink:href="#DejaVuSans-66" x="342.529297"/>
      <use xlink:href="#DejaVuSans-20" x="377.734375"/>
      <use xlink:href="#DejaVuSans-74" x="409.521484"/>
      <use xlink:href="#DejaVuSans-68" x="448.730469"/>
      <use xlink:href="#DejaVuSans-65" x="512.109375"/>
      <use xlink:href="#DejaVuSans-20" x="573.632812"/>
      <use xlink:href="#DejaVuSans-64" x="605.419922"/>
      <use xlink:href="#DejaVuSans-65" x="668.896484"/>
      <use xlink:href="#DejaVuSans-6b" x="730.419922"/>
     </g>
    </g>
   </g>
   <g id="matplotlib.axis_2">
    <g id="ytick_1">
     <g id="line2d_6">
      <defs>
       <path id="m0b71ffd0f9" d="M 0 0  L -3.5 0  " style="stroke: #000000; stroke-width: 0.8"/>
      </defs>
      <g>
       <use xlink:href="#m0b71ffd0f9" x="55.04" y="29.76" style="stroke: #000000; stroke-width: 0.8"/>
      </g>
     </g>
     <g id="text_7">
      <!-- 0.0 -->
      <g transform="translate(28.95625 34.319063) scale(0.12 -0.12)">
       <defs>
        <path id="DejaVuSans-2e" d="M 684 794  L 1344 794  L 1344 0  L 684 0  L 684 794  z " transform="scale(0.015625)"/>
       </defs>
       <use xlink:href="#DejaVuSans-30"/>
       <use xlink:href="#DejaVuSans-2e" x="63.623047"/>
       <use xlink:href="#DejaVuSans-30" x="95.410156"/>
      </g>
     </g>
    </g>
    <g id="ytick_2">
     <g id="line2d_7">
      <g>
       <use xlink:href="#m0b71ffd0f9" x="55.04" y="69.904762" style="stroke: #000000; stroke-width: 0.8"/>
      </g>
     </g>
     <g id="text_8">
      <!-- 0.2 -->
      <g transform="translate(28.95625 74.463824) scale(0.12 -0.12)">
       <use xlink:href="#DejaVuSans-30"/>
       <use xlink:href="#DejaVuSans-2e" x="63.623047"/>
       <use xlink:href="#DejaVuSans-32" x="95.410156"/>
      </g>
     </g>
    </g>
    <g id="ytick_3">
     <g id="line2d_8">
      <g>
       <use xlink:href="#m0b71ffd0f9" x="55.04" y="110.049524" style="stroke: #000000; stroke-width: 0.8"/>
      </g>
     </g>
     <g id="text_9">
      <!-- 0.4 -->
      <g transform="translate(28.95625 114.608586) scale(0.12 -0.12)">
       <use xlink:href="#DejaVuSans-30"/>
       <use xlink:href="#DejaVuSans-2e" x="63.623047"/>
       <use xlink:href="#DejaVuSans-34" x="95.410156"/>
      </g>
     </g>
    </g>
    <g id="ytick_4">
     <g id="line2d_9">
      <g>
       <use xlink:href="#m0b71ffd0f9" x="55.04" y="150.194286" style="stroke: #000000; stroke-width: 0.8"/>
      </g>
     </g>
     <g id="text_10">
      <!-- 0.6 -->
      <g transform="translate(28.95625 154.753348) scale(0.12 -0.12)">
       <use xlink:href="#DejaVuSans-30"/>
       <use xlink:href="#DejaVuSans-2e" x="63.623047"/>
       <use xlink:href="#DejaVuSans-36" x="95.410156"/>
      </g>
     </g>
    </g>
    <g id="ytick_5">
     <g id="line2d_10">
      <g>
       <use xlink:href="#m0b71ffd0f9" x="55.04" y="190.339048" style="stroke: #000000; stroke-width: 0.8"/>
      </g>
     </g>
     <g id="text_11">
      <!-- 0.8 -->
      <g transform="translate(28.95625 194.89811) scale(0.12 -0.12)">
       <use xlink:href="#DejaVuSans-30"/>
       <use xlink:href="#DejaVuSans-2e" x="63.623047"/>
       <use xlink:href="#DejaVuSans-38" x="95.410156"/>
      </g>
     </g>
    </g>
    <g id="ytick_6">
     <g id="line2d_11">
      <g>
       <use xlink:href="#m0b71ffd0f9" x="55.04" y="230.48381" style="stroke: #000000; stroke-width: 0.8"/>
      </g>
     </g>
     <g id="text_12">
      <!-- 1.0 -->
      <g transform="translate(28.95625 235.042872) scale(0.12 -0.12)">
       <use xlink:href="#DejaVuSans-31"/>
       <use xlink:href="#DejaVuSans-2e" x="63.623047"/>
       <use xlink:href="#DejaVuSans-30" x="95.410156"/>
      </g>
     </g>
    </g>
    <g id="text_13">
     <!-- Proportion of the day -->
     <g transform="translate(21.9615 211.15175) rotate(-90) scale(0.144 -0.144)">
      <defs>
       <path id="DejaVuSans-50" d="M 1259 4147  L 1259 2394  L 2053 2394  Q 2494 2394 2734 2622  Q 2975 2850 2975 3272  Q 2975 3691 2734 3919  Q 2494 4147 2053 4147  L 1259 4147  z M 628 4666  L 2053 4666  Q 2838 4666 3239 4311  Q 3641 3956 3641 3272  Q 3641 2581 3239 2228  Q 2838 1875 2053 1875  L 1259 1875  L 1259 0  L 628 0  L 628 4666  z " transform="scale(0.015625)"/>
       <path id="DejaVuSans-70" d="M 1159 525  L 1159 -1331  L 581 -1331  L 581 3500  L 1159 3500  L 1159 2969  Q 1341 3281 1617 3432  Q 1894 3584 2278 3584  Q 2916 3584 3314 3078  Q 3713 2572 3713 1747  Q 3713 922 3314 415  Q 2916 -91 2278 -91  Q 1894 -91 1617 61  Q 1341 213 1159 525  z M 3116 1747  Q 3116 2381 2855 2742  Q 2594 3103 2138 3103  Q 1681 3103 1420 2742  Q 1159 2381 1159 1747  Q 1159 1113 1420 752  Q 1681 391 2138 391  Q 2594 391 2855 752  Q 3116 1113 3116 1747  z " transform="scale(0.015625)"/>
       <path id="DejaVuSans-69" d="M 603 3500  L 1178 3500  L 1178 0  L 603 0  L 603 3500  z M 603 4863  L 1178 4863  L 1178 4134  L 603 4134  L 603 4863  z " transform="scale(0.015625)"/>
       <path id="DejaVuSans-6e" d="M 3513 2113  L 3513 0  L 2938 0  L 2938 2094  Q 2938 2591 2744 2837  Q 2550 3084 2163 3084  Q 1697 3084 1428 2787  Q 1159 2491 1159 1978  L 1159 0  L 581 0  L 581 3500  L 1159 3500  L 1159 2956  Q 1366 3272 1645 3428  Q 1925 3584 2291 3584  Q 2894 3584 3203 3211  Q 3513 2838 3513 2113  z " transform="scale(0.015625)"/>
      </defs>
      <use xlink:href="#DejaVuSans-50"/>
      <use xlink:href="#DejaVuSans-72" x="58.552734"/>
      <use xlink:href="#DejaVuSans-6f" x="97.416016"/>
      <use xlink:href="#DejaVuSans-70" x="158.597656"/>
      <use xlink:href="#DejaVuSans-6f" x="222.074219"/>
      <use xlink:href="#DejaVuSans-72" x="283.255859"/>
      <use xlink:href="#DejaVuSans-74" x="324.369141"/>
      <use xlink:href="#DejaVuSans-69" x="363.578125"/>
      <use xlink:href="#DejaVuSans-6f" x="391.361328"/>
      <use xlink:href="#DejaVuSans-6e" x="452.542969"/>
      <use xlink:href="#DejaVuSans-20" x="515.921875"/>
      <use xlink:href="#DejaVuSans-6f" x="547.708984"/>
      <use xlink:href="#DejaVuSans-66" x="608.890625"/>
      <use xlink:href="#DejaVuSans-20" x="644.095703"/>
      <use xlink:href="#DejaVuSans-74" x="675.882812"/>
      <use xlink:href="#DejaVuSans-68" x="715.091797"/>
      <use xlink:href="#DejaVuSans-65" x="778.470703"/>
      <use xlink:href="#DejaVuSans-20" x="839.994141"/>
      <use xlink:href="#DejaVuSans-64" x="871.78125"/>
      <use xlink:href="#DejaVuSans-61" x="935.257812"/>
      <use xlink:href="#DejaVuSans-79" x="996.537109"/>
     </g>
    </g>
   </g>
   <g id="patch_18">
    <path d="M 55.04 240.52  L 55.04 29.76  " style="fill: none; stroke: #000000; stroke-width: 0.8; stroke-linejoin: miter; stroke-linecap: square"/>
   </g>
   <g id="patch_19">
    <path d="M 421.2 240.52  L 421.2 29.76  " style="fill: none; stroke: #000000; stroke-width: 0.8; stroke-linejoin: miter; stroke-linecap: square"/>
   </g>
   <g id="patch_20">
    <path d="M 55.04 240.52  L 421.2 240.52  " style="fill: none; stroke: #000000; stroke-width: 0.8; stroke-linejoin: miter; stroke-linecap: square"/>
   </g>
   <g id="patch_21">
    <path d="M 55.04 29.76  L 421.2 29.76  " style="fill: none; stroke: #000000; stroke-width: 0.8; stroke-linejoin: miter; stroke-linecap: square"/>
   </g>
   <g id="text_14">
    <path d="M 91.802978 63.209821  L 94.071728 63.209821  L 94.071728 65.939196  L 91.802978 65.939196  L 91.802978 63.209821  z M 105.372079 57.290446  Q 106.929267 57.623884 107.802392 58.679196  Q 108.678954 59.731071 108.678954 61.277946  Q 108.678954 63.649821 107.046142 64.952634  Q 105.413329 66.252009 102.405517 66.252009  Q 101.398329 66.252009 100.329267 66.052634  Q 99.260204 65.853259 98.122392 65.454509  L 98.122392 63.361071  Q 99.023017 63.887009 100.095517 64.155134  Q 101.171454 64.423259 102.343642 64.423259  Q 104.382079 64.423259 105.451142 63.618884  Q 106.520204 62.814509 106.520204 61.277946  Q 106.520204 59.858259 105.526767 59.060759  Q 104.533329 58.259821 102.763017 58.259821  L 100.893017 58.259821  L 100.893017 56.475759  L 102.848954 56.475759  Q 104.447392 56.475759 105.296454 55.836384  Q 106.145517 55.197009 106.145517 53.993884  Q 106.145517 52.759821 105.268954 52.099821  Q 104.395829 51.436384 102.763017 51.436384  Q 101.869267 51.436384 100.848329 51.632321  Q 99.827392 51.824821 98.603642 52.230446  L 98.603642 50.298571  Q 99.841142 49.954821 100.920517 49.782946  Q 101.999892 49.611071 102.955517 49.611071  Q 105.427079 49.611071 106.863954 50.735134  Q 108.304267 51.855759 108.304267 53.767009  Q 108.304267 55.100759 107.541142 56.018571  Q 106.778017 56.936384 105.372079 57.290446  z " style="fill: #ffffff; stroke: #000000"/>
    <path d="M 91.802978 63.209821  L 94.071728 63.209821  L 94.071728 65.939196  L 91.802978 65.939196  L 91.802978 63.209821  z M 105.372079 57.290446  Q 106.929267 57.623884 107.802392 58.679196  Q 108.678954 59.731071 108.678954 61.277946  Q 108.678954 63.649821 107.046142 64.952634  Q 105.413329 66.252009 102.405517 66.252009  Q 101.398329 66.252009 100.329267 66.052634  Q 99.260204 65.853259 98.122392 65.454509  L 98.122392 63.361071  Q 99.023017 63.887009 100.095517 64.155134  Q 101.171454 64.423259 102.343642 64.423259  Q 104.382079 64.423259 105.451142 63.618884  Q 106.520204 62.814509 106.520204 61.277946  Q 106.520204 59.858259 105.526767 59.060759  Q 104.533329 58.259821 102.763017 58.259821  L 100.893017 58.259821  L 100.893017 56.475759  L 102.848954 56.475759  Q 104.447392 56.475759 105.296454 55.836384  Q 106.145517 55.197009 106.145517 53.993884  Q 106.145517 52.759821 105.268954 52.099821  Q 104.395829 51.436384 102.763017 51.436384  Q 101.869267 51.436384 100.848329 51.632321  Q 99.827392 51.824821 98.603642 52.230446  L 98.603642 50.298571  Q 99.841142 49.954821 100.920517 49.782946  Q 101.999892 49.611071 102.955517 49.611071  Q 105.427079 49.611071 106.863954 50.735134  Q 108.304267 51.855759 108.304267 53.767009  Q 108.304267 55.100759 107.541142 56.018571  Q 106.778017 56.936384 105.372079 57.290446  z " style="fill: #ffffff"/>
   </g>
   <g id="text_15">
    <path d="M 160.88977 63.209821  L 163.15852 63.209821  L 163.15852 65.939196  L 160.88977 65.939196  L 160.88977 63.209821  z M 174.458872 57.290446  Q 176.016059 57.623884 176.889184 58.679196  Q 177.765747 59.731071 177.765747 61.277946  Q 177.765747 63.649821 176.132934 64.952634  Q 174.500122 66.252009 171.492309 66.252009  Q 170.485122 66.252009 169.416059 66.052634  Q 168.346997 65.853259 167.209184 65.454509  L 167.209184 63.361071  Q 168.109809 63.887009 169.182309 64.155134  Q 170.258247 64.423259 171.430434 64.423259  Q 173.468872 64.423259 174.537934 63.618884  Q 175.606997 62.814509 175.606997 61.277946  Q 175.606997 59.858259 174.613559 59.060759  Q 173.620122 58.259821 171.849809 58.259821  L 169.979809 58.259821  L 169.979809 56.475759  L 171.935747 56.475759  Q 173.534184 56.475759 174.383247 55.836384  Q 175.232309 55.197009 175.232309 53.993884  Q 175.232309 52.759821 174.355747 52.099821  Q 173.482622 51.436384 171.849809 51.436384  Q 170.956059 51.436384 169.935122 51.632321  Q 168.914184 51.824821 167.690434 52.230446  L 167.690434 50.298571  Q 168.927934 49.954821 170.007309 49.782946  Q 171.086684 49.611071 172.042309 49.611071  Q 174.513872 49.611071 175.950747 50.735134  Q 177.391059 51.855759 177.391059 53.767009  Q 177.391059 55.100759 176.627934 56.018571  Q 175.864809 56.936384 174.458872 57.290446  z " style="fill: #ffffff; stroke: #000000"/>
    <path d="M 160.88977 63.209821  L 163.15852 63.209821  L 163.15852 65.939196  L 160.88977 65.939196  L 160.88977 63.209821  z M 174.458872 57.290446  Q 176.016059 57.623884 176.889184 58.679196  Q 177.765747 59.731071 177.765747 61.277946  Q 177.765747 63.649821 176.132934 64.952634  Q 174.500122 66.252009 171.492309 66.252009  Q 170.485122 66.252009 169.416059 66.052634  Q 168.346997 65.853259 167.209184 65.454509  L 167.209184 63.361071  Q 168.109809 63.887009 169.182309 64.155134  Q 170.258247 64.423259 171.430434 64.423259  Q 173.468872 64.423259 174.537934 63.618884  Q 175.606997 62.814509 175.606997 61.277946  Q 175.606997 59.858259 174.613559 59.060759  Q 173.620122 58.259821 171.849809 58.259821  L 169.979809 58.259821  L 169.979809 56.475759  L 171.935747 56.475759  Q 173.534184 56.475759 174.383247 55.836384  Q 175.232309 55.197009 175.232309 53.993884  Q 175.232309 52.759821 174.355747 52.099821  Q 173.482622 51.436384 171.849809 51.436384  Q 170.956059 51.436384 169.935122 51.632321  Q 168.914184 51.824821 167.690434 52.230446  L 167.690434 50.298571  Q 168.927934 49.954821 170.007309 49.782946  Q 171.086684 49.611071 172.042309 49.611071  Q 174.513872 49.611071 175.950747 50.735134  Q 177.391059 51.855759 177.391059 53.767009  Q 177.391059 55.100759 176.627934 56.018571  Q 175.864809 56.936384 174.458872 57.290446  z " style="fill: #ffffff"/>
   </g>
   <g id="text_16">
    <path d="M 229.976562 63.209821  L 232.245312 63.209821  L 232.245312 65.939196  L 229.976562 65.939196  L 229.976562 63.209821  z M 243.545664 57.290446  Q 245.102852 57.623884 245.975977 58.679196  Q 246.852539 59.731071 246.852539 61.277946  Q 246.852539 63.649821 245.219727 64.952634  Q 243.586914 66.252009 240.579102 66.252009  Q 239.571914 66.252009 238.502852 66.052634  Q 237.433789 65.853259 236.295977 65.454509  L 236.295977 63.361071  Q 237.196602 63.887009 238.269102 64.155134  Q 239.345039 64.423259 240.517227 64.423259  Q 242.555664 64.423259 243.624727 63.618884  Q 244.693789 62.814509 244.693789 61.277946  Q 244.693789 59.858259 243.700352 59.060759  Q 242.706914 58.259821 240.936602 58.259821  L 239.066602 58.259821  L 239.066602 56.475759  L 241.022539 56.475759  Q 242.620977 56.475759 243.470039 55.836384  Q 244.319102 55.197009 244.319102 53.993884  Q 244.319102 52.759821 243.442539 52.099821  Q 242.569414 51.436384 240.936602 51.436384  Q 240.042852 51.436384 239.021914 51.632321  Q 238.000977 51.824821 236.777227 52.230446  L 236.777227 50.298571  Q 238.014727 49.954821 239.094102 49.782946  Q 240.173477 49.611071 241.129102 49.611071  Q 243.600664 49.611071 245.037539 50.735134  Q 246.477852 51.855759 246.477852 53.767009  Q 246.477852 55.100759 245.714727 56.018571  Q 244.951602 56.936384 243.545664 57.290446  z " style="fill: #ffffff; stroke: #000000"/>
    <path d="M 229.976562 63.209821  L 232.245312 63.209821  L 232.245312 65.939196  L 229.976562 65.939196  L 229.976562 63.209821  z M 243.545664 57.290446  Q 245.102852 57.623884 245.975977 58.679196  Q 246.852539 59.731071 246.852539 61.277946  Q 246.852539 63.649821 245.219727 64.952634  Q 243.586914 66.252009 240.579102 66.252009  Q 239.571914 66.252009 238.502852 66.052634  Q 237.433789 65.853259 236.295977 65.454509  L 236.295977 63.361071  Q 237.196602 63.887009 238.269102 64.155134  Q 239.345039 64.423259 240.517227 64.423259  Q 242.555664 64.423259 243.624727 63.618884  Q 244.693789 62.814509 244.693789 61.277946  Q 244.693789 59.858259 243.700352 59.060759  Q 242.706914 58.259821 240.936602 58.259821  L 239.066602 58.259821  L 239.066602 56.475759  L 241.022539 56.475759  Q 242.620977 56.475759 243.470039 55.836384  Q 244.319102 55.197009 244.319102 53.993884  Q 244.319102 52.759821 243.442539 52.099821  Q 242.569414 51.436384 240.936602 51.436384  Q 240.042852 51.436384 239.021914 51.632321  Q 238.000977 51.824821 236.777227 52.230446  L 236.777227 50.298571  Q 238.014727 49.954821 239.094102 49.782946  Q 240.173477 49.611071 241.129102 49.611071  Q 243.600664 49.611071 245.037539 50.735134  Q 246.477852 51.855759 246.477852 53.767009  Q 246.477852 55.100759 245.714727 56.018571  Q 244.951602 56.936384 243.545664 57.290446  z " style="fill: #ffffff"/>
   </g>
   <g id="text_17">
    <path d="M 302.937417 134.367217  L 306.48148 134.367217  L 306.48148 122.129717  L 302.624605 122.903155  L 302.624605 120.926592  L 306.460855 120.153155  L 308.629917 120.153155  L 308.629917 134.367217  L 312.17398 134.367217  L 312.17398 136.19253  L 302.937417 136.19253  L 302.937417 134.367217  z " style="fill: #ffffff; stroke: #000000"/>
    <path d="M 302.937417 134.367217  L 306.48148 134.367217  L 306.48148 122.129717  L 302.624605 122.903155  L 302.624605 120.926592  L 306.460855 120.153155  L 308.629917 120.153155  L 308.629917 134.367217  L 312.17398 134.367217  L 312.17398 136.19253  L 302.937417 136.19253  L 302.937417 134.367217  z " style="fill: #ffffff"/>
   </g>
   <g id="text_18">
    <path d="M 372.02421 134.367217  L 375.568272 134.367217  L 375.568272 122.129717  L 371.711397 122.903155  L 371.711397 120.926592  L 375.547647 120.153155  L 377.71671 120.153155  L 377.71671 134.367217  L 381.260772 134.367217  L 381.260772 136.19253  L 372.02421 136.19253  L 372.02421 134.367217  z " style="fill: #ffffff; stroke: #000000"/>
    <path d="M 372.02421 134.367217  L 375.568272 134.367217  L 375.568272 122.129717  L 371.711397 122.903155  L 371.711397 120.926592  L 375.547647 120.153155  L 377.71671 120.153155  L 377.71671 134.367217  L 381.260772 134.367217  L 381.260772 136.19253  L 372.02421 136.19253  L 372.02421 134.367217  z " style="fill: #ffffff"/>
   </g>
   <g id="text_19">
    <path d="M 91.802978 133.463155  L 94.071728 133.463155  L 94.071728 136.19253  L 91.802978 136.19253  L 91.802978 133.463155  z M 104.760204 122.04378  L 99.280829 130.606592  L 104.760204 130.606592  L 104.760204 122.04378  z M 104.189579 120.153155  L 106.918954 120.153155  L 106.918954 130.606592  L 109.208329 130.606592  L 109.208329 132.41128  L 106.918954 132.41128  L 106.918954 136.19253  L 104.760204 136.19253  L 104.760204 132.41128  L 97.520829 132.41128  L 97.520829 130.317842  L 104.189579 120.153155  z " style="fill: #ffffff; stroke: #000000"/>
    <path d="M 91.802978 133.463155  L 94.071728 133.463155  L 94.071728 136.19253  L 91.802978 136.19253  L 91.802978 133.463155  z M 104.760204 122.04378  L 99.280829 130.606592  L 104.760204 130.606592  L 104.760204 122.04378  z M 104.189579 120.153155  L 106.918954 120.153155  L 106.918954 130.606592  L 109.208329 130.606592  L 109.208329 132.41128  L 106.918954 132.41128  L 106.918954 136.19253  L 104.760204 136.19253  L 104.760204 132.41128  L 97.520829 132.41128  L 97.520829 130.317842  L 104.189579 120.153155  z " style="fill: #ffffff"/>
   </g>
   <g id="text_20">
    <path d="M 160.88977 133.463155  L 163.15852 133.463155  L 163.15852 136.19253  L 160.88977 136.19253  L 160.88977 133.463155  z M 173.846997 122.04378  L 168.367622 130.606592  L 173.846997 130.606592  L 173.846997 122.04378  z M 173.276372 120.153155  L 176.005747 120.153155  L 176.005747 130.606592  L 178.295122 130.606592  L 178.295122 132.41128  L 176.005747 132.41128  L 176.005747 136.19253  L 173.846997 136.19253  L 173.846997 132.41128  L 166.607622 132.41128  L 166.607622 130.317842  L 173.276372 120.153155  z " style="fill: #ffffff; stroke: #000000"/>
    <path d="M 160.88977 133.463155  L 163.15852 133.463155  L 163.15852 136.19253  L 160.88977 136.19253  L 160.88977 133.463155  z M 173.846997 122.04378  L 168.367622 130.606592  L 173.846997 130.606592  L 173.846997 122.04378  z M 173.276372 120.153155  L 176.005747 120.153155  L 176.005747 130.606592  L 178.295122 130.606592  L 178.295122 132.41128  L 176.005747 132.41128  L 176.005747 136.19253  L 173.846997 136.19253  L 173.846997 132.41128  L 166.607622 132.41128  L 166.607622 130.317842  L 173.276372 120.153155  z " style="fill: #ffffff"/>
   </g>
   <g id="text_21">
    <path d="M 229.976562 133.463155  L 232.245312 133.463155  L 232.245312 136.19253  L 229.976562 136.19253  L 229.976562 133.463155  z M 242.933789 122.04378  L 237.454414 130.606592  L 242.933789 130.606592  L 242.933789 122.04378  z M 242.363164 120.153155  L 245.092539 120.153155  L 245.092539 130.606592  L 247.381914 130.606592  L 247.381914 132.41128  L 245.092539 132.41128  L 245.092539 136.19253  L 242.933789 136.19253  L 242.933789 132.41128  L 235.694414 132.41128  L 235.694414 130.317842  L 242.363164 120.153155  z " style="fill: #ffffff; stroke: #000000"/>
    <path d="M 229.976562 133.463155  L 232.245312 133.463155  L 232.245312 136.19253  L 229.976562 136.19253  L 229.976562 133.463155  z M 242.933789 122.04378  L 237.454414 130.606592  L 242.933789 130.606592  L 242.933789 122.04378  z M 242.363164 120.153155  L 245.092539 120.153155  L 245.092539 130.606592  L 247.381914 130.606592  L 247.381914 132.41128  L 245.092539 132.41128  L 245.092539 136.19253  L 242.933789 136.19253  L 242.933789 132.41128  L 235.694414 132.41128  L 235.694414 130.317842  L 242.363164 120.153155  z " style="fill: #ffffff"/>
   </g>
   <g id="text_22">
    <!-- Schedule 3 -->
    <g transform="translate(190.17205 23.76) scale(0.1728 -0.1728)">
     <defs>
      <path id="DejaVuSans-53" d="M 3425 4513  L 3425 3897  Q 3066 4069 2747 4153  Q 2428 4238 2131 4238  Q 1616 4238 1336 4038  Q 1056 3838 1056 3469  Q 1056 3159 1242 3001  Q 1428 2844 1947 2747  L 2328 2669  Q 3034 2534 3370 2195  Q 3706 1856 3706 1288  Q 3706 609 3251 259  Q 2797 -91 1919 -91  Q 1588 -91 1214 -16  Q 841 59 441 206  L 441 856  Q 825 641 1194 531  Q 1563 422 1919 422  Q 2459 422 2753 634  Q 3047 847 3047 1241  Q 3047 1584 2836 1778  Q 2625 1972 2144 2069  L 1759 2144  Q 1053 2284 737 2584  Q 422 2884 422 3419  Q 422 4038 858 4394  Q 1294 4750 2059 4750  Q 2388 4750 2728 4690  Q 3069 4631 3425 4513  z " transform="scale(0.015625)"/>
      <path id="DejaVuSans-63" d="M 3122 3366  L 3122 2828  Q 2878 2963 2633 3030  Q 2388 3097 2138 3097  Q 1578 3097 1268 2742  Q 959 2388 959 1747  Q 959 1106 1268 751  Q 1578 397 2138 397  Q 2388 397 2633 464  Q 2878 531 3122 666  L 3122 134  Q 2881 22 2623 -34  Q 2366 -91 2075 -91  Q 1284 -91 818 406  Q 353 903 353 1747  Q 353 2603 823 3093  Q 1294 3584 2113 3584  Q 2378 3584 2631 3529  Q 2884 3475 3122 3366  z " transform="scale(0.015625)"/>
      <path id="DejaVuSans-75" d="M 544 1381  L 544 3500  L 1119 3500  L 1119 1403  Q 1119 906 1312 657  Q 1506 409 1894 409  Q 2359 409 2629 706  Q 2900 1003 2900 1516  L 2900 3500  L 3475 3500  L 3475 0  L 2900 0  L 2900 538  Q 2691 219 2414 64  Q 2138 -91 1772 -91  Q 1169 -91 856 284  Q 544 659 544 1381  z M 1991 3584  L 1991 3584  z " transform="scale(0.015625)"/>
      <path id="DejaVuSans-6c" d="M 603 4863  L 1178 4863  L 1178 0  L 603 0  L 603 4863  z " transform="scale(0.015625)"/>
     </defs>
     <use xlink:href="#DejaVuSans-53"/>
     <use xlink:href="#DejaVuSans-63" x="63.476562"/>
     <use xlink:href="#DejaVuSans-68" x="118.457031"/>
     <use xlink:href="#DejaVuSans-65" x="181.835938"/>
     <use xlink:href="#DejaVuSans-64" x="243.359375"/>
     <use xlink:href="#DejaVuSans-75" x="306.835938"/>
     <use xlink:href="#DejaVuSans-6c" x="370.214844"/>
     <use xlink:href="#DejaVuSans-65" x="397.998047"/>
     <use xlink:href="#DejaVuSans-20" x="459.521484"/>
     <use xlink:href="#DejaVuSans-33" x="491.308594"/>
    </g>
   </g>
   <g id="legend_1">
    <g id="patch_22">
     <path d="M 328.57875 83.553  L 411.12 83.553  Q 414 83.553 414 80.673  L 414 39.84  Q 414 36.96 411.12 36.96  L 328.57875 36.96  Q 325.69875 36.96 325.69875 39.84  L 325.69875 80.673  Q 325.69875 83.553 328.57875 83.553  z " style="fill: #ffffff; opacity: 0.8; stroke: #cccccc; stroke-linejoin: miter"/>
    </g>
    <g id="patch_23">
     <path d="M 331.45875 53.66175  L 360.25875 53.66175  L 360.25875 43.58175  L 331.45875 43.58175  z " style="fill: #377eb8"/>
    </g>
    <g id="text_23">
     <!-- Rest -->
     <g transform="translate(371.77875 53.66175) scale(0.144 -0.144)">
      <defs>
       <path id="DejaVuSans-52" d="M 2841 2188  Q 3044 2119 3236 1894  Q 3428 1669 3622 1275  L 4263 0  L 3584 0  L 2988 1197  Q 2756 1666 2539 1819  Q 2322 1972 1947 1972  L 1259 1972  L 1259 0  L 628 0  L 628 4666  L 2053 4666  Q 2853 4666 3247 4331  Q 3641 3997 3641 3322  Q 3641 2881 3436 2590  Q 3231 2300 2841 2188  z M 1259 4147  L 1259 2491  L 2053 2491  Q 2509 2491 2742 2702  Q 2975 2913 2975 3322  Q 2975 3731 2742 3939  Q 2509 4147 2053 4147  L 1259 4147  z " transform="scale(0.015625)"/>
      </defs>
      <use xlink:href="#DejaVuSans-52"/>
      <use xlink:href="#DejaVuSans-65" x="64.982422"/>
      <use xlink:href="#DejaVuSans-73" x="126.505859"/>
      <use xlink:href="#DejaVuSans-74" x="178.605469"/>
     </g>
    </g>
    <g id="patch_24">
     <path d="M 331.45875 74.79825  L 360.25875 74.79825  L 360.25875 64.71825  L 331.45875 64.71825  z " style="fill: #e41a1c"/>
    </g>
    <g id="text_24">
     <!-- Work -->
     <g transform="translate(371.77875 74.79825) scale(0.144 -0.144)">
      <defs>
       <path id="DejaVuSans-57" d="M 213 4666  L 850 4666  L 1831 722  L 2809 4666  L 3519 4666  L 4500 722  L 5478 4666  L 6119 4666  L 4947 0  L 4153 0  L 3169 4050  L 2175 0  L 1381 0  L 213 4666  z " transform="scale(0.015625)"/>
      </defs>
      <use xlink:href="#DejaVuSans-57"/>
      <use xlink:href="#DejaVuSans-6f" x="93.001953"/>
      <use xlink:href="#DejaVuSans-72" x="154.183594"/>
      <use xlink:href="#DejaVuSans-6b" x="195.296875"/>
     </g>
    </g>
   </g>
  </g>
 </g>
 <defs>
  <clipPath id="p99afe75dcf">
   <rect x="55.04" y="29.76" width="366.16" height="210.76"/>
  </clipPath>
 </defs>
</svg>